<?xml version="1.0" encoding="UTF-8"?> <svg xmlns="http://www.w3.org/2000/svg" width="453" height="589" viewBox="0 0 453 589" fill="none"> <g style="mix-blend-mode:difference"> <path d="M226.52 0C101.411 0 0 99.0723 0 221.296V589H453V221.296C453 99.0723 351.589 0 226.52 0ZM117.471 169.751H142.813L220.135 300.776H232.826L310.147 169.751H335.49V318.302H315.435V198.412L244.694 318.302H208.384L137.643 198.412V318.302H117.588V169.751H117.471ZM335.569 487.402H310.226L232.904 356.377H220.213L142.892 487.402H117.549V338.851H137.604V458.74L208.345 338.851H244.655L315.396 458.74V338.851H335.451V487.402H335.569Z" fill="#DEDEDE"></path> </g> </svg> 