<svg width="192" height="106" viewBox="0 0 192 106" fill="none" xmlns="http://www.w3.org/2000/svg">
<g clip-path="url(#clip0_1043_62859)">
<path d="M35.2979 74.6238C35.9566 78.0822 36.2311 83.2973 35.9017 87.9085C36.8898 87.6889 37.9328 87.6889 38.9209 87.9085C38.5916 83.2424 38.8112 78.0822 39.5248 74.6238C38.0975 75.0629 36.6702 75.0629 35.2979 74.6238Z" fill="#AF8C5A"/>
<path d="M45.5082 65.1819C45.3435 65.2368 45.1788 65.2917 45.0142 65.2917C44.9044 65.3466 44.7397 65.3466 44.575 65.4015C44.4103 65.4564 44.2456 65.4564 44.026 65.5113C43.9711 65.5113 43.9711 65.5113 43.9162 65.5113C43.8613 65.5113 43.8065 65.5113 43.8065 65.5113C43.6418 65.5662 43.1477 65.676 41.1715 65.8956H41.1166C40.8421 65.8956 40.6225 65.9505 40.348 65.9505H40.2382H40.1833H40.1285C40.0736 65.9505 40.0187 65.9505 39.9638 65.9505H39.7991C39.7442 65.9505 39.6893 65.9505 39.5795 65.9505H39.5246C39.4697 65.9505 39.4697 65.9505 39.4148 65.9505H39.305H39.0305C38.9756 65.9505 38.8659 65.9505 38.811 65.9505H38.7561C38.7012 65.9505 38.6463 65.9505 38.5914 65.9505H38.4816H38.4267H38.1522H37.9326C37.8777 65.9505 37.8228 65.9505 37.8228 65.9505H37.7679C37.6582 65.9505 37.6033 65.9505 37.4935 65.9505H37.2739C37.219 65.9505 37.1641 65.9505 37.1092 65.9505C36.9994 65.9505 36.9445 65.9505 36.8347 65.9505H36.7249C36.67 65.9505 36.6151 65.9505 36.6151 65.9505H36.3956C36.176 65.9505 35.9564 65.9505 35.7368 65.9505H35.5721C35.4623 65.9505 35.3525 65.9505 35.2427 65.9505L35.2976 66.0053L33.1567 65.8407C33.1018 65.8407 33.1018 65.8407 33.0469 65.8407C32.8822 65.8407 32.7724 65.7858 32.6077 65.7858C32.4431 65.7858 32.2784 65.7309 32.0588 65.7309H32.0039C31.8941 65.7309 31.7843 65.676 31.6745 65.676C31.5098 65.676 31.2903 65.6211 31.0707 65.5662H30.9609C30.906 65.5662 30.8511 65.5662 30.7962 65.5113C30.4668 65.4564 30.1923 65.4015 29.9179 65.3466C29.863 65.3466 29.7532 65.2917 29.6983 65.2917H29.6434C29.5885 65.2917 29.5336 65.2368 29.4238 65.2368H29.314C29.2591 65.2368 29.2042 65.1819 29.0944 65.1819C29.0395 65.1819 28.9846 65.1819 28.9298 65.127H28.8749C28.82 65.127 28.7651 65.0721 28.6553 65.0721C29.7532 68.8599 31.7843 71.7694 34.2546 73.1418C34.3644 73.1967 34.5291 73.2516 34.6389 73.3065C34.7487 73.3614 34.8585 73.4163 34.9683 73.4711C36.5053 74.075 38.1522 74.075 39.6893 73.4711C39.7991 73.4163 39.9089 73.3614 40.0187 73.3065C40.1284 73.2516 40.2382 73.1967 40.4029 73.1418C42.9281 71.7694 44.9593 68.7501 46.0572 64.8525C46.0023 64.8525 45.9474 64.9074 45.8925 64.9074C45.7827 65.0721 45.6729 65.127 45.5082 65.1819Z" fill="#AF8C5A"/>
<path d="M39.6345 89.0065C39.5247 88.9516 39.4149 88.9516 39.3051 88.8967C39.1953 88.8418 39.0856 88.8418 38.9758 88.7869C37.8779 88.5124 36.7799 88.5124 35.682 88.7869C35.5722 88.7869 35.4624 88.8418 35.3526 88.8967C35.2429 88.9516 35.1331 88.9516 35.0233 89.0065C32.6079 89.8848 30.9061 92.0806 30.6865 94.6607C30.961 95.3195 31.4551 95.7587 32.004 95.7587C32.6079 95.7587 33.1019 95.2646 33.3764 94.4412C33.4313 94.2765 33.596 94.1667 33.7607 94.1667C33.9254 94.1667 34.0352 94.2216 34.0901 94.3863C34.0901 94.3863 34.145 94.4412 34.145 94.4961C34.1999 94.6059 34.2547 94.7156 34.3096 94.8254C34.3645 94.8803 34.3645 94.9352 34.4194 94.9901C34.4743 95.0999 34.5292 95.2097 34.639 95.2646C34.9135 95.594 35.2429 95.7587 35.5722 95.7587C35.9016 95.7587 36.231 95.594 36.5055 95.2646C36.5604 95.1548 36.6701 95.0999 36.725 94.9901C36.7799 94.8803 36.8348 94.8254 36.8897 94.7156C36.9446 94.6058 36.9446 94.551 36.9995 94.4961C37.0544 94.3314 37.2191 94.2216 37.3838 94.2216C37.5485 94.2216 37.7132 94.3314 37.7681 94.4961C37.7681 94.551 37.823 94.6607 37.8779 94.7156C37.9327 94.8254 37.9877 94.9352 38.0425 94.9901C38.0974 95.0999 38.1523 95.2097 38.2621 95.2646C38.5366 95.594 38.866 95.7587 39.1953 95.7587C39.5247 95.7587 39.8541 95.594 40.1286 95.2646C40.1835 95.1548 40.2933 95.0999 40.3482 94.9901C40.403 94.9352 40.4031 94.8803 40.4579 94.8254C40.5128 94.7156 40.5677 94.6058 40.6226 94.4412V94.3863C40.6775 94.2216 40.8422 94.1667 41.0069 94.1667C41.1716 94.1667 41.3363 94.2765 41.3912 94.4412C41.6656 95.2646 42.1597 95.7587 42.7636 95.7587C43.2576 95.7587 43.7517 95.3744 44.0262 94.7156C43.8066 92.1355 42.1048 89.8848 39.6345 89.0065Z" fill="#AF8C5A"/>
<path d="M40.9521 95.5391C40.513 96.1978 39.8542 96.5821 39.1955 96.5821C38.4818 96.5821 37.878 96.1978 37.4388 95.5391C36.9997 96.1978 36.3409 96.5821 35.6822 96.5821C34.9685 96.5821 34.3647 96.1978 33.9255 95.5391C33.4863 96.1978 32.8276 96.5821 32.1688 96.5821C31.7297 96.5821 31.2905 96.4174 30.9062 96.088C31.1258 97.8447 32.0591 99.4915 33.5412 100.535H41.4462C42.8735 99.4367 43.8616 97.8447 44.0812 96.088C43.6969 96.3625 43.3126 96.5272 42.8186 96.5272C42.05 96.5821 41.3913 96.1978 40.9521 95.5391Z" fill="#AF8C5A"/>
<path d="M41.5015 101.413C41.4466 101.413 41.3917 101.413 41.3368 101.413H33.4318C33.3769 101.413 33.322 101.413 33.2672 101.413C32.8829 101.523 32.6084 102.017 32.6084 102.511C32.6084 103.115 32.9927 103.664 33.4318 103.664H41.3368C41.776 103.664 42.1602 103.17 42.1602 102.511C42.1053 102.017 41.8309 101.578 41.5015 101.413Z" fill="#AF8C5A"/>
<path d="M31.8944 11.6586L31.9493 11.7135C33.1021 12.6467 34.9137 13.8545 37.2193 14.7877C36.0116 13.8545 35.1881 12.8663 34.6941 11.8233C34.0902 10.5607 34.2549 9.18833 35.0235 8.41979C36.0665 7.37677 37.4937 7.70615 38.427 8.31C38.5917 8.41979 38.7563 8.52958 38.921 8.69427C38.8112 7.87083 39.0857 7.10229 39.6347 6.60823C40.4032 5.94949 41.6109 5.94949 42.599 6.60823C43.7518 7.37677 44.6851 8.47468 45.3987 9.90197C45.5634 9.40791 45.8379 8.96875 46.2222 8.69427C47.1005 8.09042 48.3631 8.2551 49.2414 9.13343C49.8453 9.79218 50.3942 10.5607 50.8334 11.439C50.9981 10.8901 51.3274 10.5058 51.7666 10.3411C52.2058 10.1764 52.7547 10.2313 53.2488 10.5058C53.8526 10.8901 54.2918 11.5488 54.4016 12.4821C54.4565 12.8663 54.4565 13.2506 54.4016 13.58C54.8408 12.5919 55.3348 10.945 55.225 8.69427C55.1701 7.59636 54.7859 6.77292 54.0173 6.27886C53.4684 5.89459 52.6998 5.7848 52.1509 6.00438C51.2176 6.38865 50.9432 7.59636 50.8883 8.2551L50.8334 8.69427L50.6687 8.31C50.01 6.71803 49.1316 5.34564 48.0886 4.19283C47.0456 3.09492 45.5085 2.87533 44.4655 3.58898C43.8067 4.08304 43.3676 5.07116 43.3127 6.11417V6.66313L43.0931 6.16907C42.0501 3.75366 40.6228 1.88721 38.8112 0.624615C37.6584 -0.198819 36.1214 -0.198819 35.243 0.569719C34.3647 1.39315 34.0902 2.93023 34.6392 4.19283L34.8588 4.74178L34.4745 4.35752C33.9804 3.86345 33.4864 3.47919 32.9374 3.09492C32.3336 2.65575 31.5101 2.32638 30.6867 2.32638C30.0279 2.32638 29.3143 2.54596 28.7653 3.14981C27.7772 4.19283 27.6125 5.89459 28.3811 7.54146C29.0947 9.02364 30.2475 10.396 31.8944 11.6586Z" fill="#AF8C5A"/>
<path d="M17.6212 20.2224L17.8957 20.387C17.8957 20.387 17.9506 20.387 17.9506 20.4419L18.0055 20.4968C18.5545 20.8811 20.0915 21.8143 22.7265 22.7476C22.8363 22.8024 23.001 22.8573 23.1108 22.8573L23.2206 22.9122C23.3304 22.9671 23.4402 22.9671 23.4951 23.022C23.55 23.022 23.6049 23.0769 23.6598 23.0769L23.7696 23.1318C23.8245 23.1318 23.8793 23.1867 23.9891 23.1867C24.044 23.1867 24.0989 23.2416 24.1538 23.2416L24.2636 23.2965C24.3185 23.2965 24.3734 23.2965 24.3734 23.3514C24.4832 23.4063 24.593 23.4063 24.7028 23.4612H24.7577C24.8126 23.4612 24.8126 23.4612 24.8675 23.5161C24.9773 23.571 25.087 23.571 25.1968 23.6259L25.3615 23.6808C25.4713 23.7357 25.5811 23.7357 25.7458 23.7906H25.8007C25.8556 23.7906 25.8556 23.7906 25.9105 23.7906C25.9654 23.7906 26.0203 23.8455 26.0752 23.8455C26.1301 23.2416 26.1849 22.5829 26.2947 21.979C21.4639 21.1556 18.8289 18.9049 18.7192 18.85L18.6643 18.7951C17.2919 17.5874 16.8527 16.215 17.4566 14.8426C17.6761 14.3485 18.0055 13.9094 18.4447 13.4702C18.8838 13.031 19.3779 12.7566 19.872 12.5919C20.0915 12.537 20.2562 12.4821 20.4758 12.4272C20.1464 11.7135 19.9269 11.1646 19.8171 10.8352H19.7622H19.7073H19.6524C19.5975 10.8352 19.5975 10.8352 19.5426 10.8352C19.4877 10.8352 19.4328 10.8352 19.4328 10.8352H19.3779C19.323 10.8352 19.323 10.8352 19.2681 10.8352H19.2132C19.1583 10.8352 19.1583 10.8352 19.1034 10.8352H19.0485C18.9936 10.8352 18.9936 10.8352 18.9387 10.8352H18.8838C18.8289 10.8352 18.8289 10.8352 18.7741 10.8901H18.7192C18.6643 10.8901 18.6643 10.8901 18.6094 10.945H18.5545C18.4996 10.945 18.4996 10.9999 18.4447 10.9999H18.3898C18.3349 10.9999 18.28 11.0548 18.2251 11.0548H18.1702C18.1153 11.0548 18.0604 11.1097 18.0055 11.1646H17.9506C17.8957 11.1646 17.8408 11.2195 17.8408 11.2195H17.7859C17.731 11.2195 17.731 11.2744 17.6761 11.2744C17.6761 11.2744 17.6212 11.2744 17.6212 11.3293C17.5663 11.3293 17.5663 11.3842 17.5114 11.3842C17.4565 11.3842 17.4566 11.4391 17.4566 11.4391C17.4017 11.4391 17.4017 11.494 17.3468 11.494L17.2919 11.5488C17.237 11.5488 17.237 11.6037 17.1821 11.6037L17.1272 11.6586C17.0723 11.7135 17.0723 11.7135 17.0174 11.7684C17.0174 11.7684 16.9625 11.7684 16.9625 11.8233C16.9076 11.8782 16.8527 11.8782 16.8527 11.9331C16.8527 11.9331 16.8527 11.9331 16.7978 11.988C16.7429 12.0429 16.688 12.0978 16.6331 12.1527C16.5782 12.2076 16.5233 12.2625 16.5233 12.3174C16.5233 12.3174 16.5233 12.3723 16.4684 12.3723V12.4272C16.4135 12.4821 16.4135 12.537 16.3587 12.537L16.3038 12.5919C16.2489 12.6468 16.2488 12.7017 16.194 12.7017C16.194 12.7566 16.1391 12.7566 16.1391 12.8114C16.0842 12.8663 16.0842 12.9212 16.0293 12.9761C16.0293 13.031 15.9744 13.031 15.9744 13.0859C15.9195 13.1408 15.9195 13.1957 15.8646 13.2506C15.8646 13.3055 15.8097 13.3055 15.8097 13.3604C15.8097 13.4153 15.7548 13.4702 15.7548 13.5251V13.58C15.7548 13.58 15.7548 13.6349 15.6999 13.6349C15.6999 13.6898 15.645 13.7447 15.645 13.8545V13.9094V13.9643C15.5901 14.074 15.5901 14.1838 15.5352 14.2936C14.2726 17.6972 16.688 19.5636 17.6212 20.2224Z" fill="#AF8C5A"/>
<path d="M29.6436 41.5218C29.424 41.412 29.1495 41.3571 28.9299 41.2473C26.1303 40.2043 23.7697 39.326 22.8365 37.3497C22.1229 35.8676 22.5071 33.8913 23.7697 31.97C23.7148 31.97 23.605 31.97 23.5501 31.97H23.4404C23.3306 31.97 23.2208 31.97 23.1659 31.97H23.111C23.0561 31.97 23.0561 31.97 23.0012 31.97C22.8914 31.97 22.7816 31.97 22.6718 31.97H22.6169C22.562 31.97 22.5071 31.97 22.3974 31.97H22.3425C22.2327 31.97 22.1778 31.97 22.068 31.97C22.0131 31.97 21.9033 31.97 21.8484 31.97H21.7935C21.7386 31.97 21.7386 31.97 21.6837 31.97H21.519L21.2445 32.464C21.2445 32.5189 21.1896 32.5189 21.1896 32.5738V32.6287C21.1896 32.6836 21.1347 32.7385 21.1347 32.7934V32.8483C21.1347 32.9032 21.0798 32.9032 21.0798 32.9581L21.025 33.013C21.025 33.0679 20.9701 33.0679 20.9701 33.1228L20.9152 33.2326C20.9152 33.2875 20.9152 33.2875 20.8603 33.3424L20.8054 33.3973C20.8054 33.4522 20.7505 33.4522 20.7505 33.507L20.6956 33.5619C20.6956 33.6168 20.6407 33.6168 20.6407 33.6717V33.7266C20.6407 33.7815 20.5858 33.7815 20.5858 33.8364V33.8913C20.5858 33.9462 20.5858 33.9462 20.5309 34.0011C20.5309 34.056 20.5309 34.056 20.5309 34.1109C20.5309 34.1658 20.5309 34.2207 20.476 34.2207V34.2756C20.476 34.3305 20.476 34.3305 20.4211 34.3854C20.4211 34.4403 20.4211 34.4403 20.4211 34.4952C20.4211 34.5501 20.4211 34.5501 20.3662 34.605C20.3662 34.6599 20.3662 34.6599 20.3662 34.7148C20.3662 34.7696 20.3662 34.8245 20.3662 34.8245C20.3662 34.8794 20.3662 34.8794 20.3662 34.9343C20.3662 34.9892 20.3662 35.0441 20.3662 35.0441C20.3662 35.099 20.3662 35.099 20.3662 35.1539C20.3662 35.2088 20.3662 35.2637 20.3662 35.2637C20.3662 35.3186 20.3662 35.3186 20.3662 35.3735C20.3662 35.4284 20.3662 35.4833 20.3662 35.4833C20.3662 35.5382 20.3662 35.5382 20.3662 35.5931C20.3662 35.648 20.3662 35.7029 20.3662 35.7029C20.3662 35.7578 20.3662 35.7578 20.3662 35.8127C20.3662 35.8676 20.3662 35.9225 20.3662 35.9225C20.3662 35.9773 20.3662 35.9773 20.3662 36.0322C20.3662 36.0871 20.3662 36.142 20.3662 36.142C20.3662 36.1969 20.3662 36.1969 20.3662 36.2518C20.3662 36.3067 20.3662 36.3616 20.3662 36.3616V36.4165V36.4714C20.3662 36.5263 20.3662 36.5812 20.3662 36.5812V36.6361C20.3662 36.691 20.3662 36.691 20.3662 36.7459C20.3662 36.8008 20.3662 36.8008 20.3662 36.8557V36.9106V36.9655C20.3662 37.0204 20.3662 37.0204 20.4211 37.0753V37.1302V37.185C20.4211 37.2399 20.4211 37.2948 20.476 37.2948V37.3497V37.4046C20.476 37.4595 20.5309 37.5144 20.5309 37.5693V37.6242V37.6791C20.5858 37.7889 20.5858 37.8438 20.6407 37.9536C21.7386 40.2592 24.4834 41.3571 27.9967 42.7295C28.2712 42.8393 28.6006 42.9491 28.875 43.0589L29.0946 43.1687C29.424 43.2785 29.6985 43.4432 30.0278 43.5529L30.1376 43.6078C30.5219 43.7725 30.8513 43.9372 31.2355 44.047C31.2355 44.047 31.2904 44.047 31.2904 44.1019C31.1257 43.8274 30.9611 43.5529 30.7415 43.2785C30.4121 42.9491 30.0278 42.2903 29.6436 41.5218Z" fill="#AF8C5A"/>
<path d="M20.3667 10.2313L20.4216 10.396V10.4509V10.5058C20.4216 10.5606 20.4216 10.5606 20.4765 10.6155C20.4765 10.6704 20.5313 10.7253 20.5313 10.7253C20.5313 10.7802 20.5862 10.8351 20.5862 10.89C20.5862 10.9449 20.6411 10.9998 20.6411 11.1096C21.245 12.5918 22.7272 15.4464 26.1856 18.1362L26.2405 18.1911C26.4052 18.3009 26.5699 18.4656 26.7346 18.5754L26.7895 18.6303L26.8443 18.6852C27.5031 16.16 28.2167 14.4582 28.4912 13.9093C26.6796 12.0428 25.3622 9.79211 24.6485 7.4865C23.9349 5.18088 23.88 2.82037 24.4838 0.679443C18.61 3.42422 19.9275 8.91378 20.2569 10.0117C20.3667 10.1764 20.3667 10.2313 20.3667 10.2313Z" fill="#AF8C5A"/>
<path d="M16.194 22.8025C15.9744 23.1318 15.8097 23.4612 15.645 23.7906C15.645 23.8455 15.5901 23.9004 15.5901 23.9553C15.5901 24.0102 15.5352 24.0651 15.5352 24.12C15.4803 24.2846 15.4254 24.3944 15.3705 24.5042C15.3705 24.5591 15.3156 24.6689 15.3156 24.7787V24.8336V24.8885C15.3156 24.9434 15.2607 24.9983 15.2607 25.0532C15.2607 25.1081 15.2607 25.163 15.2607 25.163V25.2179C15.2607 25.2728 15.2607 25.2728 15.2607 25.3277C15.2607 25.3825 15.2607 25.4374 15.2607 25.5472V25.6021V25.657C15.2607 25.7119 15.2607 25.8217 15.2607 25.8766V25.9315C15.2607 25.9315 15.2607 25.9315 15.2607 25.9864C15.2607 26.0413 15.2607 26.1511 15.2607 26.206C15.2607 26.206 15.2607 26.206 15.2607 26.2609C15.2607 26.2609 15.2607 26.2609 15.2607 26.3158C15.2607 26.3707 15.2607 26.4805 15.2607 26.5354C15.2607 26.5354 15.2607 26.5354 15.2607 26.5903C15.2607 26.5903 15.2607 26.5903 15.2607 26.6451C15.2607 26.7 15.2607 26.8098 15.3156 26.8647C15.3156 26.8647 15.3156 26.8647 15.3156 26.9196C15.3156 26.9196 15.3156 26.9196 15.3156 26.9745C15.3156 27.0843 15.3705 27.1941 15.3705 27.3039C15.4254 27.4137 15.4254 27.5784 15.4803 27.6882C16.0842 29.2801 17.731 30.4329 20.3111 31.1466C20.6954 31.2564 21.1346 31.3662 21.5737 31.4211C21.5737 31.4211 21.6286 31.4211 21.7933 31.4211C21.7933 31.4211 21.8482 31.4211 21.9031 31.4211H22.1776C22.2325 31.4211 22.2874 31.4211 22.3423 31.4211C22.3972 31.4211 22.3972 31.4211 22.4521 31.4211H22.507C22.5618 31.4211 22.5619 31.4211 22.6167 31.4211H22.6716C22.7265 31.4211 22.7265 31.4211 22.7814 31.4211H22.8363C22.8912 31.4211 22.8912 31.4211 22.9461 31.4211H23.001C23.0559 31.4211 23.0559 31.4211 23.1108 31.4211H23.3853C23.4402 31.4211 23.4402 31.4211 23.4951 31.4211C23.55 31.4211 23.55 31.4211 23.6049 31.4211C23.6598 31.4211 23.6598 31.4211 23.7147 31.4211C23.7696 31.4211 23.7695 31.4211 23.8244 31.4211H23.9342C23.9891 31.4211 23.9891 31.4211 24.044 31.4211C24.0989 31.4211 24.0989 31.4211 24.1538 31.4211C24.2087 31.4211 24.2087 31.4211 24.2636 31.4211C24.3185 31.4211 24.3185 31.4211 24.3734 31.4211C24.4283 31.4211 24.4283 31.4211 24.4832 31.4211H24.593C24.6479 31.4211 24.6479 31.4211 24.7028 31.4211H24.7577C24.9224 31.4211 25.0321 31.3662 25.1968 31.3662H25.3066C25.4713 31.3113 25.636 31.3113 25.7458 31.2564L25.8007 31.3662V31.2564H25.8556C26.0203 31.2015 26.185 31.2015 26.2947 31.1466H26.3496C26.4045 31.1466 26.5143 31.0917 26.5692 31.0917C26.4594 30.4329 26.4045 29.8291 26.3496 29.2252C26.3496 29.1703 26.3496 29.1703 26.3496 29.1155C25.087 29.3899 23.8793 29.5546 22.8363 29.5546C21.3541 29.5546 20.1464 29.2801 19.2132 28.7312C18.3898 28.2371 17.7859 27.5235 17.5663 26.6451C17.1821 25.0532 18.6094 23.0769 19.5426 22.1986C18.7741 21.8143 18.2251 21.485 17.9506 21.2654C17.3468 21.3752 16.7429 21.979 16.194 22.8025Z" fill="#AF8C5A"/>
<path d="M25.9653 26.5902C25.9653 26.3706 25.9653 26.151 25.9653 25.9863C25.9653 25.9314 25.9653 25.8765 25.9653 25.8216V25.602C25.9653 25.4923 25.9653 25.4374 25.9653 25.3276C25.9653 25.2727 25.9653 25.2727 25.9653 25.2727V25.2178C25.9653 25.108 25.9653 25.0531 25.9653 24.9433V24.8884C25.9653 24.7237 25.9653 24.6139 25.9653 24.4492C25.9653 24.3943 25.9653 24.3943 25.9653 24.3395C25.8006 24.2846 25.6908 24.2846 25.5261 24.2297H25.4712C22.8911 23.6258 20.9698 22.8024 19.7621 22.2534C19.1582 22.7475 17.4016 24.7786 17.7858 26.2608C17.9505 26.9195 18.3897 27.5234 19.1033 27.9626C20.5855 28.8409 22.946 28.9507 25.8555 28.2919V28.237C25.8555 28.0724 25.8555 27.9077 25.8555 27.7979C25.8555 27.743 25.8555 27.6881 25.8555 27.6332C25.8555 27.3587 25.8555 27.1391 25.8555 26.8098C25.8555 26.7549 25.8555 26.7549 25.8555 26.7C25.9653 26.5902 25.9653 26.5902 25.9653 26.5902Z" fill="#AF8C5A"/>
<path d="M28.9848 40.0946C28.9299 40.0398 28.9299 39.93 28.875 39.8751C28.2163 38.338 27.6124 36.6362 27.1733 34.9345L27.1184 34.7149C26.8439 33.617 26.5694 32.5191 26.4047 31.4211C26.4047 31.4211 26.4047 31.4211 26.3498 31.4211L26.1851 31.476C26.1303 31.476 26.0754 31.476 26.0754 31.5309C26.0205 31.5309 26.0205 31.5309 25.9656 31.5309H25.9107C25.8558 31.5309 25.8009 31.5858 25.746 31.5858C25.3617 31.6956 24.9774 31.7505 24.5932 31.8054C23.4953 33.2327 22.562 35.3187 23.3855 37.0205C24.2089 38.7223 26.4596 39.6006 29.1495 40.5887L29.2593 40.6436C29.2044 40.5338 29.1495 40.424 29.0946 40.3142C29.0397 40.2593 28.9848 40.2044 28.9848 40.0946Z" fill="#AF8C5A"/>
<path d="M26.789 19.4537C26.7341 19.4537 26.7341 19.4537 26.789 19.4537C26.6792 19.3988 26.6792 19.3439 26.6243 19.3439L26.4048 19.1792C26.3499 19.1792 26.3499 19.1243 26.295 19.1243C26.2401 19.0694 26.1852 19.0694 26.1303 19.0146C26.0754 18.9597 26.0205 18.9048 25.9107 18.8499L25.8009 18.795L25.746 18.7401C25.6911 18.7401 25.6911 18.6852 25.6362 18.6852L25.5813 18.6303C23.0012 16.5443 21.5191 14.4033 20.7505 12.9211C20.5309 12.9211 20.3113 12.976 20.0369 13.0858C19.6526 13.2505 19.2134 13.4701 18.8292 13.8544C18.4449 14.2386 18.1704 14.568 18.0057 15.0072C17.2921 16.7089 18.6096 17.8617 19.0488 18.246L19.1036 18.3009C19.1036 18.3009 21.7386 20.4967 26.3499 21.3202C26.5145 20.6065 26.6243 20.0027 26.789 19.4537Z" fill="#AF8C5A"/>
<path d="M34.7489 18.85L33.8156 18.1912C33.7607 18.1363 33.7059 18.0814 33.651 18.0814L33.2667 17.807C33.2118 17.7521 33.1569 17.6972 33.102 17.6972L32.9922 17.5874C32.9373 17.5325 32.8824 17.4776 32.8275 17.4776L31.8943 16.8188C31.4551 18.1912 31.0709 19.6734 30.7964 21.1556C30.7964 21.2105 30.7964 21.2105 30.7964 21.2654V21.4301C30.7964 21.485 30.7964 21.5399 30.7964 21.5948C30.6866 22.2535 30.6317 22.9123 30.5219 23.571C30.5219 23.6808 30.5219 23.7906 30.467 23.9004V24.0102C30.467 24.0651 30.467 24.1749 30.467 24.2298C30.467 24.2846 30.467 24.3944 30.467 24.4493V24.6689C30.467 24.7238 30.467 24.7787 30.467 24.7787C30.467 24.8336 30.467 24.8336 30.467 24.8885C30.467 24.9434 30.467 24.9434 30.467 24.9983C30.4121 25.8766 30.4121 26.755 30.4121 27.5784C30.5219 32.5739 32.4432 39.875 35.3527 43.4981L35.4076 43.553L35.4625 43.6079C35.4625 43.6628 35.5174 43.6628 35.5174 43.7177L35.5723 43.7726C35.6272 43.8824 35.737 43.9373 35.7919 43.9922C36.78 44.9254 38.1524 45.5292 39.4699 45.5292C40.2933 45.5292 41.007 45.4195 41.6108 45.1999C41.7206 45.145 41.8304 45.145 41.9402 45.0901C42.05 45.0352 42.1598 44.9803 42.2696 44.9254C42.3245 44.9254 42.3794 44.8705 42.3794 44.8705C42.2696 44.2118 42.2147 43.4432 42.2696 42.6198L39.0856 42.4002C37.823 42.2904 36.8898 41.1925 36.9447 39.9299C36.9996 39.326 37.2741 38.7771 37.7132 38.3379C37.7132 38.3379 37.7681 38.3379 37.7681 38.283H37.5485C36.2859 38.1732 35.3527 37.0753 35.4076 35.8127C35.4625 35.2089 35.737 34.605 36.231 34.2208C35.6821 34.1659 35.188 33.8914 34.8587 33.4522C34.4744 33.013 34.2548 32.4092 34.3097 31.8053C34.3646 31.2015 34.6391 30.6525 35.0782 30.2134C35.1331 30.1585 35.188 30.1036 35.2429 30.1036C34.3097 29.7193 33.7058 28.7861 33.7607 27.798C33.8156 27.0294 34.2548 26.3158 34.9685 25.9315C34.2548 25.4924 33.8156 24.6689 33.8705 23.7906C33.8705 23.5161 33.9803 23.2965 34.0352 23.0221C34.0901 22.9672 34.0901 22.9123 34.145 22.8025C34.1999 22.7476 34.1999 22.6927 34.2548 22.6378C34.5293 22.2535 34.9136 21.9241 35.4076 21.7595C35.2978 21.7046 35.2429 21.5948 35.1331 21.5399C34.7489 21.1007 34.5293 20.4969 34.5842 19.893C34.5293 19.4538 34.6391 19.1794 34.7489 18.85Z" fill="#AF8C5A"/>
<path d="M4.66647 43.2785L5.38012 43.7176L4.55668 43.8823C4.55668 43.8823 2.74513 44.2666 1.8119 45.4194C0.933574 46.4624 0.659096 47.6701 0.98847 48.8778C1.53743 48.3838 2.63534 47.5054 4.22731 47.5054C4.66648 47.5054 5.10564 47.5603 5.54481 47.6701C6.64272 47.9995 7.68574 48.8778 8.94834 49.866C9.60709 50.4149 10.3207 50.9639 11.0893 51.5677L11.3088 51.6775C12.2421 52.2814 13.2302 52.9401 14.383 53.3793C14.7124 53.544 15.0966 53.6538 15.426 53.8184C15.4809 53.8184 15.5358 53.8733 15.5907 53.8733C15.6456 53.8733 15.7005 53.9282 15.7005 53.9282L15.7554 53.9831C15.975 54.038 16.1946 54.1478 16.3592 54.2027L20.3666 55.3006C19.2138 54.3125 17.8414 52.7754 17.018 51.0188C13.5596 49.5366 10.5403 47.0663 8.39938 43.9372L8.34448 43.8823C8.28959 43.7725 8.23468 43.7176 8.17979 43.6079C7.90531 43.2236 7.46615 42.6197 7.24657 42.0159C5.6546 39.1064 4.83116 35.8127 4.83116 32.464C4.83116 28.8958 5.76439 25.4374 7.52105 22.3633L7.79553 21.8692L8.07001 22.4182C8.56407 23.4063 9.55218 24.0101 10.6501 24.0101C12.2421 24.0101 13.5047 22.7475 13.5047 21.1556C13.5047 20.387 13.2851 18.5206 11.2539 17.8618C9.00322 17.1482 4.00773 17.8618 2.19617 22.8573C1.37274 25.108 1.53743 27.7979 2.63534 30.0486L2.85493 30.5427L2.80003 30.5976C2.80003 30.5976 2.03148 31.2015 1.37274 32.2994C0.768886 33.2875 0.11014 34.9892 0.439514 37.24C0.768888 38.9417 1.70211 41.4669 4.66647 43.2785Z" fill="#AF8C5A"/>
<path d="M15.261 54.4223C15.2061 54.3674 15.0963 54.3674 15.0414 54.3125C14.712 54.1478 14.3827 54.038 14.1082 53.9282C12.9005 53.4342 11.9123 52.7754 10.9791 52.1716L10.7595 52.0618C8.7833 50.7992 5.87384 50.3051 3.67801 50.9639C2.08604 51.4579 0.933225 52.446 0.274478 53.8733C0.109791 54.2027 0 54.7517 0 55.1908C0 56.8926 1.37239 58.265 3.07416 58.265C4.77592 58.265 6.14831 56.8926 6.14831 55.1908C6.14831 54.9712 6.14831 54.7517 6.09341 54.5321L5.98363 53.9831L6.53258 54.2027C7.19133 54.4223 7.85007 54.7517 8.50882 55.1359C8.61861 55.1908 8.7284 55.2457 8.83819 55.3555C10.4302 56.2887 13.7239 58.265 18.6645 59.0335C17.6215 57.7709 16.798 56.3436 16.1393 54.8066C15.8099 54.6419 15.5355 54.5321 15.261 54.4223Z" fill="#AF8C5A"/>
<path d="M22.6173 50.0307C21.9585 49.5366 21.4096 48.9328 20.9155 48.2191C18.8295 47.6702 16.9081 46.6272 15.3161 45.1999C13.6693 43.7726 12.4067 41.9061 11.5283 39.875C11.5283 39.8201 11.4734 39.7652 11.4734 39.7103L11.4186 39.5456C10.8147 37.9537 10.5402 36.3068 10.5402 34.605C10.5402 33.2326 10.7598 31.8603 11.1441 30.5977C10.2658 31.0368 8.61889 32.2445 8.12483 34.9344C7.79545 36.6911 8.72866 38.5026 8.72866 38.5026L8.83846 38.7222L8.67378 38.8869C8.67378 38.8869 8.50908 38.9967 8.45419 39.1065C7.79544 39.7652 7.57586 40.918 7.90523 41.7964C8.12481 42.2904 8.45419 42.7845 8.78356 43.2785C8.83846 43.3883 8.89336 43.4432 8.94826 43.4981L9.00314 43.553C11.0343 46.3527 13.7242 48.6034 16.7983 50.0856C16.6336 49.6464 16.5787 49.2622 16.5238 48.823L16.4689 48.274L16.963 48.4387C16.9081 48.4936 20.3116 49.7562 22.6173 50.0307Z" fill="#AF8C5A"/>
<path d="M12.3518 34.9344C11.6382 36.4715 11.6931 38.2281 12.0224 39.2712C12.0773 39.381 12.1322 39.4907 12.1322 39.6005L12.2969 39.9299C13.834 43.4981 16.7984 46.188 20.4764 47.3957C20.0372 46.5723 19.7627 45.7488 19.598 45.1999C19.4333 44.5411 19.2686 43.8824 19.2138 43.3334C16.9081 41.9061 15.426 40.0397 15.1515 38.0635C14.877 36.4166 15.426 34.1659 17.7316 33.1777C17.2375 32.7935 16.1396 32.2994 14.877 32.6837C13.4497 33.1229 12.7361 34.1659 12.3518 34.9344Z" fill="#AF8C5A"/>
<path d="M29.0398 45.9135C29.0947 45.9684 29.1496 46.0233 29.2045 46.0782C29.2594 46.1331 29.3143 46.188 29.4241 46.2978C29.5887 46.4625 29.8083 46.5722 30.0279 46.7369C30.1377 46.7918 30.2475 46.8467 30.4122 46.9016H30.4671C30.522 46.9016 30.5769 46.9565 30.6318 46.9565C30.7416 47.0114 30.8513 47.0114 30.9611 47.0114C31.0709 47.0114 31.1807 47.0663 31.2905 47.0663C31.9493 47.1212 32.6629 47.0114 33.2667 46.682C32.9923 46.4076 32.7178 46.1331 32.4982 45.8586C32.4433 45.8037 32.3884 45.6939 32.3335 45.639C32.2786 45.5841 32.2237 45.4743 32.1139 45.4194C31.8395 45.4743 31.565 45.5292 31.3454 45.5292C30.522 45.639 29.6985 45.6939 28.93 45.6939C28.8751 45.8037 28.9849 45.8586 29.0398 45.9135Z" fill="#AF8C5A"/>
<path d="M45.3435 48.2192C45.2886 48.329 45.2337 48.4388 45.1239 48.5486C45.069 48.6584 45.0141 48.7682 44.9592 48.878C44.9043 48.9878 44.8494 49.0976 44.7945 49.2074C44.3005 50.5797 44.4652 51.8972 45.2337 52.7207C45.5082 53.05 45.8925 53.2696 46.3316 53.4343C46.4414 53.4892 46.5512 53.4892 46.661 53.5441C46.7708 53.5441 46.8806 53.599 46.9904 53.599C47.8138 53.7088 48.8019 53.5441 49.7352 53.1049C49.296 51.513 49.5705 49.6465 50.6135 47.835C48.0334 48.7682 46.2767 48.4937 45.3435 48.2192Z" fill="#AF8C5A"/>
<path d="M47.5398 57.0572C47.43 57.0572 47.3202 57.0572 47.2104 57.0572C47.1006 57.0572 46.9908 57.0572 46.881 57.0572C45.7282 57.0572 44.6852 56.8376 43.8069 56.3984C43.8069 56.3984 43.752 56.3984 43.752 56.4533C43.0933 57.0572 42.709 57.9355 42.709 58.8138C42.709 59.7471 43.0383 60.5705 43.6422 61.2293C44.2461 61.888 45.1244 62.2723 46.0027 62.2723C46.2223 62.2723 46.4419 62.2723 46.6615 62.2174C46.7712 62.2174 46.881 62.1625 46.9908 62.1625C47.1006 62.1076 47.2104 62.1076 47.3202 62.0527C47.7594 61.888 48.0887 61.6684 48.4181 61.339C48.473 61.2841 48.5279 61.2293 48.6926 61.0646C47.9241 59.9118 47.7045 58.4845 47.9789 57.0023C47.9241 57.0023 47.7594 57.0023 47.5398 57.0572Z" fill="#AF8C5A"/>
<path d="M30.0279 50.6345C29.973 50.6345 29.9181 50.6345 29.8632 50.5796H29.8083C29.7534 50.5796 29.6985 50.5247 29.5887 50.5247C29.5338 50.5247 29.424 50.4698 29.3691 50.4698C29.2594 50.4149 29.2045 50.4149 29.0947 50.36C28.9849 50.3051 28.8751 50.3051 28.8202 50.2502C28.5457 50.1404 28.2163 49.9757 27.9419 49.811C27.887 49.8659 27.887 49.8659 27.8321 49.9208C27.2282 50.4698 26.8989 51.2383 26.7891 52.0618C26.7891 52.1167 26.7891 52.1715 26.7891 52.2264C26.7891 52.2813 26.7891 52.2813 26.7891 52.3362V52.3911C26.7891 53.1597 27.0635 53.9282 27.6125 54.4772V54.5321C27.6674 54.587 27.6674 54.6418 27.7223 54.6418L27.7772 54.6967C27.7772 54.6967 27.8321 54.6967 27.8321 54.7516C27.9419 54.8065 27.9968 54.9163 28.1066 54.9712C28.3261 55.1359 28.4908 55.2457 28.7104 55.3555C28.8202 55.4104 28.93 55.4653 29.0398 55.5202C29.2045 55.5751 29.3143 55.63 29.4789 55.63C29.5887 55.63 29.6436 55.6849 29.6985 55.6849C29.7534 55.6849 29.8083 55.6849 29.8632 55.6849H29.9181C29.973 55.6849 29.973 55.6849 30.0279 55.6849H30.0828C30.9611 55.6849 31.7846 55.3555 32.4433 54.7516C32.4982 54.6967 32.4982 54.6967 32.5531 54.6418C31.8944 53.4341 31.6199 52.1167 31.6748 50.7443C31.1807 50.8541 30.6318 50.7992 30.0279 50.6345Z" fill="#AF8C5A"/>
<path d="M39.2499 49.2072C38.9205 49.2072 38.5912 49.2072 38.2618 49.1523C37.9873 49.0974 37.6579 49.0974 37.3835 48.9876C37.109 48.9327 36.8345 48.8779 36.56 48.7681C36.56 48.7681 36.56 48.7681 36.5051 48.823C36.4502 48.8779 36.4503 48.8779 36.3954 48.9328L36.3405 48.9876C36.2856 49.0425 36.2307 49.0974 36.1758 49.1523C35.6817 49.7562 35.4072 50.4698 35.4072 51.2384C35.4072 52.1716 35.7366 52.995 36.3405 53.6538C36.9443 54.3125 37.8226 54.6968 38.701 54.6968C39.6342 54.6968 40.4576 54.3674 41.1164 53.7636C41.1713 53.7087 41.1713 53.7087 41.2262 53.6538C40.6772 52.2814 40.6772 50.6894 41.2262 48.9328C40.6223 49.1523 39.9087 49.2072 39.2499 49.2072Z" fill="#AF8C5A"/>
<path d="M35.2427 57.3867C35.1878 57.4416 35.1878 57.4416 35.1329 57.4965C34.4741 58.1004 34.0898 58.9787 34.0898 59.857C34.0898 60.7902 34.4192 61.6137 35.0231 62.2724C35.6269 62.9312 36.5053 63.3154 37.3836 63.3154C38.3168 63.3154 39.1402 62.9861 39.799 62.3822C39.8539 62.3273 39.8539 62.3273 39.9088 62.2724C39.25 61.0647 38.9756 59.7472 39.0304 58.3748C37.713 58.4297 36.3955 58.1004 35.2427 57.3867Z" fill="#AF8C5A"/>
<path d="M23.7153 56.179C23.7701 56.1241 23.8799 56.0143 23.9348 55.9594C23.9897 55.9045 24.0995 55.8496 24.1544 55.7399C23.6055 54.6968 23.2761 53.5989 23.2761 52.3912V52.3363V52.2814V52.2265C23.2761 52.2265 23.2761 52.2265 23.2761 52.1716C23.2761 52.1167 23.2761 52.007 23.2761 51.9521C23.2761 51.5129 23.331 51.0737 23.4408 50.6346H23.3859C21.4645 50.6346 18.3904 49.5915 17.2376 49.2073C17.3474 49.5915 17.4572 50.0307 17.6218 50.415V50.4699C17.6767 50.5248 17.6767 50.6346 17.7316 50.6895V50.7444C17.7865 50.7992 17.7865 50.909 17.8414 50.9639L17.8963 51.0188C18.9393 53.05 20.696 54.7517 21.9037 55.5203C22.0684 55.6301 22.1782 55.685 22.288 55.7399L22.3978 55.7947L22.1782 56.3437L16.9082 54.9164C17.567 56.4535 18.5002 57.8259 19.5981 59.0885L19.653 59.1434C19.7079 59.1983 19.7628 59.2532 19.8177 59.3081C19.8726 59.363 19.9274 59.4179 19.9823 59.4728L20.0372 59.5276C20.5862 60.0766 21.1901 60.6256 21.8488 61.1196C21.8488 61.0647 21.8488 61.0098 21.8488 60.9549C21.8488 60.5707 21.9037 60.1315 21.9586 59.7472C21.9586 59.6923 21.9586 59.6374 22.0135 59.5825V59.5276C22.0135 59.4728 22.0684 59.363 22.0684 59.3081C22.288 58.2102 22.8918 57.0573 23.7153 56.179Z" fill="#AF8C5A"/>
<path d="M24.7031 45.3097C24.2639 45.1999 23.7699 45.0352 23.3307 44.8705C22.7268 44.6509 22.123 44.3765 21.574 44.0471C20.8055 43.6079 20.2017 43.1688 19.8174 42.8943C19.8174 42.9492 19.8174 42.9492 19.8174 43.0041C19.8174 43.059 19.8174 43.1688 19.8174 43.2237C19.8174 43.2786 19.8174 43.3883 19.8174 43.4432C19.8723 43.8824 19.9821 44.5412 20.2565 45.3646C20.4212 45.9135 20.7506 46.737 21.2996 47.5604C21.3545 47.6702 21.4094 47.7251 21.4643 47.8349C21.5191 47.9447 21.574 47.9996 21.6289 48.0545C22.1779 48.7681 22.8366 49.372 23.5503 49.7562C23.715 49.2622 23.9346 48.823 24.209 48.3838C24.2639 48.329 24.3188 48.2192 24.3188 48.1643C24.3737 48.1094 24.4286 48.0545 24.4286 47.9447C24.6482 47.6153 24.9776 47.2859 25.252 47.0115C25.0874 46.5723 24.8678 45.9684 24.7031 45.3097Z" fill="#AF8C5A"/>
<path d="M39.745 9.847C39.6352 9.95679 39.4705 9.95679 39.3058 9.847C39.3058 9.847 39.3058 9.847 39.2509 9.847C38.8667 9.46273 38.4824 9.13336 38.0981 8.85888C37.9883 8.80398 37.3845 8.36482 36.6708 8.36482C36.2317 8.36482 35.8474 8.52951 35.518 8.85888C34.9142 9.46273 34.8044 10.5606 35.2984 11.6037C35.7376 12.5369 36.5061 13.4701 37.659 14.3484C37.8236 14.4582 38.3726 14.8974 39.3607 15.3366C39.5254 15.3915 39.745 15.5012 39.9646 15.5561C40.2939 15.6659 40.5684 15.7757 40.8978 15.8855C42.7093 16.4345 44.6307 16.5992 46.6618 16.3796C46.7167 16.2698 46.7716 16.16 46.8265 16.1051C46.8265 16.0502 46.8814 15.9953 46.8814 15.9953C46.8814 15.9404 46.9363 15.9404 46.9363 15.8855C47.1559 15.5561 47.4853 15.2268 47.8146 14.8974C49.3517 13.525 51.9867 13.4152 53.7434 14.074C53.8531 13.5799 53.8532 13.0858 53.7983 12.5918C53.6885 11.8781 53.414 11.3841 52.9748 11.1096C52.7003 10.9449 52.3161 10.89 52.0416 10.9998C51.3829 11.2194 51.328 12.4271 51.328 12.5369C51.328 12.7016 51.2182 12.8114 51.0535 12.8663C50.8888 12.8663 50.779 12.8114 50.7241 12.6467C50.23 11.439 49.6262 10.4509 48.8577 9.68231C48.1989 9.02357 47.2657 8.85888 46.6618 9.29804C46.2776 9.57252 46.0031 10.1215 46.0031 10.7802V10.8351C46.0031 10.9998 45.8933 11.1645 45.6737 11.2194C45.509 11.2743 45.3443 11.1645 45.2345 11.0547C44.5209 9.40783 43.5328 8.14524 42.2702 7.3218C41.5565 6.82774 40.6233 6.82774 40.0744 7.26691C39.5803 7.70607 39.3058 8.6393 39.7999 9.51763C39.7999 9.51763 39.7999 9.57252 39.8548 9.62742C39.9097 9.57252 39.8548 9.73721 39.745 9.847Z" fill="#AF8C5A"/>
<path d="M55.8285 57.3865C55.7736 57.3865 55.7187 57.3317 55.7187 57.3317C55.6638 57.3317 55.6638 57.2768 55.6089 57.2768C55.554 57.2768 55.4991 57.2219 55.4442 57.2219C55.3893 57.2219 55.3893 57.167 55.3344 57.167C55.2795 57.167 55.2246 57.1121 55.1697 57.1121C55.1148 57.1121 55.1148 57.0572 55.0599 57.0572C55.005 57.0572 54.9501 57.0023 54.8952 57.0023H54.8403C54.7854 57.0023 54.7854 57.0023 54.7306 56.9474C54.6757 56.9474 54.6208 56.8925 54.5659 56.8925H54.511C54.4561 56.8925 54.4561 56.8925 54.4012 56.8376C54.3463 56.8376 54.2914 56.7827 54.2365 56.7827L53.6875 56.618C53.5778 56.5631 53.468 56.5631 53.3582 56.5082C53.3582 56.5082 53.3033 56.5082 53.3033 56.4533H53.2484C53.1386 56.3984 53.0288 56.3984 52.919 56.3435C52.8641 56.3435 52.8641 56.3435 52.8092 56.2886H52.7543C52.6445 56.2337 52.5896 56.2337 52.4798 56.1788C52.4249 56.1788 52.37 56.1239 52.37 56.1239H52.3152C52.2603 56.0691 52.1505 56.0691 52.0956 56.0142V56.0691C52.0956 56.124 52.0407 56.1788 52.0407 56.2886V56.3435C52.0407 56.3984 51.9858 56.5082 51.9858 56.5631V56.618C51.9858 56.6729 51.9309 56.7827 51.9309 56.8376V56.8925C51.9309 56.9474 51.9309 57.0023 51.876 57.1121V57.167C51.876 57.2219 51.876 57.2768 51.876 57.3865V57.4414C51.876 57.4963 51.876 57.5512 51.876 57.661V57.7159C51.876 57.7708 51.876 57.8257 51.876 57.8806V57.9355C51.876 57.9904 51.876 58.0453 51.876 58.1002V58.1551V58.21C51.876 58.2649 51.876 58.3198 51.9309 58.3747V58.4296V58.4845C51.9309 58.5394 51.9858 58.5943 51.9858 58.6492V58.704V58.7589C51.9858 58.8138 52.0407 58.8687 52.0407 58.9236V58.9785V59.0334C52.0407 59.0883 52.0956 59.1432 52.0956 59.1432V59.1981V59.253C52.0956 59.3079 52.1505 59.3079 52.1505 59.3628C52.1505 59.3628 52.1505 59.3628 52.1505 59.4177V59.4726C52.2054 59.5275 52.2054 59.5824 52.2603 59.5824C52.2603 59.5824 52.2603 59.5824 52.2603 59.6373C52.2603 59.6373 52.2603 59.6373 52.2603 59.6922C52.3151 59.7471 52.37 59.802 52.4249 59.8569C52.4798 59.9117 52.5347 59.9666 52.6445 60.0764C52.6445 60.0764 52.6445 60.0764 52.6994 60.1313C52.6994 60.1313 52.6994 60.1313 52.7543 60.1313C52.8092 60.1862 52.8641 60.1862 52.919 60.2411L52.9739 60.296H53.0288C53.0837 60.3509 53.1386 60.3509 53.1935 60.4058C53.2484 60.4058 53.2484 60.4607 53.3033 60.4607C54.2365 59.4177 55.1148 58.4296 55.8285 57.3865Z" fill="#AF8C5A"/>
<path d="M49.1319 61.5588C49.0221 61.6686 48.9672 61.7235 48.9123 61.7784C48.4731 62.2176 47.9242 62.492 47.3752 62.7116C47.2654 62.7665 47.1556 62.7665 47.0459 62.8214C46.9361 62.8214 46.8263 62.8763 46.7165 62.8763C46.4969 62.9312 46.2773 62.9312 46.0577 62.9312C44.9598 62.9312 43.9717 62.492 43.2032 61.6686C42.4346 60.9001 42.0504 59.857 42.1053 58.814C42.1053 57.771 42.5444 56.7829 43.2581 56.0692C42.8738 55.8497 42.5444 55.5752 42.2699 55.2458C41.9955 54.9713 41.7759 54.642 41.6112 54.3126C40.8427 55.0262 39.8545 55.4105 38.8115 55.3556C37.7136 55.3556 36.7255 54.9164 35.9569 54.093C35.1884 53.3245 34.8041 52.2815 34.859 51.2384C34.859 50.2503 35.2433 49.3171 35.902 48.6034L35.9569 48.5486C35.902 48.5486 35.8472 48.4937 35.7923 48.4937C35.0786 48.1643 34.4199 47.7251 33.7611 47.1762C32.9377 47.6702 31.9496 47.8898 30.9614 47.7251C30.8516 47.7251 30.7419 47.6702 30.6321 47.6702C30.5772 47.6702 30.5223 47.6702 30.5223 47.6153C30.4674 47.6153 30.4125 47.5604 30.3027 47.5604C30.1929 47.5055 30.138 47.5055 30.0282 47.4506C29.9733 47.3957 29.8635 47.3957 29.8086 47.3408H29.7537C29.3695 47.1213 28.9852 46.8468 28.7107 46.5723C28.6009 46.4625 28.4911 46.2978 28.3814 46.188C28.3265 46.0783 28.2715 46.0234 28.2167 45.9136C28.2167 45.8587 28.1618 45.8038 28.1069 45.7489H28.052C27.9971 45.7489 27.9422 45.7489 27.9422 45.7489H27.8873C27.7226 45.7489 27.6128 45.7489 27.4481 45.7489H27.3383C27.2834 45.7489 27.2834 45.7489 27.2285 45.7489C27.0639 45.7489 26.9541 45.7489 26.7894 45.694H26.7345C26.6796 45.694 26.6796 45.694 26.6247 45.694C26.4051 45.694 26.2404 45.6391 26.0757 45.6391C25.911 45.6391 25.7464 45.5842 25.5268 45.5293C25.4719 45.5293 25.417 45.5293 25.417 45.5293C25.5268 46.0234 25.7464 46.4625 25.9659 46.9017V46.9566L26.0757 47.1762C26.2953 47.5055 26.5149 47.8349 26.7345 48.1094C26.7894 48.1643 26.8443 48.2192 26.8992 48.2741C26.9541 48.329 26.9541 48.329 27.009 48.3839L27.0639 48.4388C27.3932 48.7132 27.6677 48.9877 28.052 49.2073L28.2167 49.3171C28.4911 49.4818 28.7656 49.6465 29.0401 49.7563C29.1499 49.8112 29.2597 49.866 29.3146 49.866C29.4244 49.9209 29.5341 49.9209 29.589 49.9758H29.6439H29.6988C29.7537 49.9758 29.8086 50.0307 29.9184 50.0307C29.9733 50.0307 30.0282 50.0856 30.0831 50.0856C30.7419 50.2503 31.4006 50.3052 32.0593 50.2503L32.4436 50.1954L32.3887 50.5797C32.224 51.8972 32.4436 53.2147 33.1024 54.3675V54.4224L33.2671 54.6969C33.5415 55.136 33.816 55.5203 34.1454 55.8497C34.4748 56.179 34.859 56.5084 35.2433 56.7829L35.408 56.8927C36.5608 57.6063 37.9332 57.9357 39.3056 57.8259L39.6898 57.771L39.6349 58.1553C39.4703 59.4728 39.6898 60.7903 40.3486 61.9431L40.5133 62.2176C40.7878 62.6567 41.0622 63.041 41.3916 63.4253C41.4465 63.4802 41.5563 63.5899 41.6661 63.6997C42.2699 64.2487 42.9836 64.6879 43.7521 64.9623C43.807 64.9623 43.807 64.9623 43.8619 64.9623C43.9168 64.9623 43.9168 64.9623 43.9717 64.9623C44.1364 64.9074 44.2462 64.9074 44.4109 64.8525C44.5755 64.7976 44.7402 64.7977 44.85 64.7428C44.9598 64.6879 45.0696 64.6879 45.2343 64.633C45.4539 64.5781 45.5637 64.5232 45.7284 64.5232C45.8382 64.4683 45.8931 64.4683 46.0028 64.4134C46.0577 64.4134 46.0577 64.4134 46.1126 64.3585C46.1675 64.3585 46.2224 64.3036 46.2773 64.3036C46.3322 64.3036 46.3871 64.2487 46.442 64.2487L46.6067 64.1938C46.6616 64.1938 46.6616 64.1938 46.7165 64.1389L46.8263 64.084C46.8812 64.084 46.8812 64.084 46.9361 64.0291C47.0458 63.9742 47.2105 63.9193 47.3203 63.8644H47.3752H47.4301C48.3633 63.4802 49.2966 63.041 50.12 62.6018C49.9004 62.3273 49.5161 61.998 49.1319 61.5588Z" fill="#AF8C5A"/>
<path d="M52.5355 60.5158C52.4806 60.4609 52.4257 60.406 52.3708 60.3511L52.3159 60.2962C52.2061 60.2413 52.1512 60.1315 52.0963 60.0766C52.0414 60.0217 51.9866 59.9119 51.9317 59.857C51.9317 59.857 51.9317 59.8021 51.8768 59.8021C51.8768 59.8021 51.8768 59.8021 51.8768 59.7472C51.8219 59.6923 51.8219 59.6374 51.767 59.5825C51.767 59.5825 51.767 59.5276 51.7121 59.5276L51.6572 59.4727C51.6572 59.4179 51.6023 59.4178 51.6023 59.363C51.6023 59.363 51.6023 59.3081 51.5474 59.3081L51.4925 59.2532C51.4925 59.1983 51.4376 59.1983 51.4376 59.1434C51.4376 59.0885 51.4376 59.0885 51.3827 59.0336V58.9787C51.3827 58.9238 51.3278 58.8689 51.3278 58.8689C51.3278 58.814 51.3278 58.814 51.2729 58.7591V58.7042C51.2729 58.6493 51.2729 58.5944 51.218 58.5944C51.218 58.5395 51.218 58.5395 51.218 58.4846V58.4297C51.218 58.3748 51.218 58.3199 51.218 58.3199C51.218 58.265 51.218 58.265 51.218 58.2101V58.1553C51.218 58.1004 51.218 58.0455 51.218 57.9906C51.218 57.9357 51.218 57.9357 51.218 57.8808C51.218 57.8259 51.218 57.771 51.218 57.7161C51.218 57.6612 51.218 57.6063 51.218 57.6063C51.218 57.5514 51.218 57.4965 51.218 57.4416C51.218 57.3867 51.218 57.3318 51.218 57.2769C51.218 57.222 51.218 57.1671 51.218 57.1122C51.218 57.0573 51.218 57.0024 51.218 56.9475C51.218 56.8927 51.218 56.8378 51.2729 56.7829C51.2729 56.728 51.2729 56.6731 51.3278 56.6182C51.3278 56.5633 51.3278 56.5084 51.3827 56.4535C51.3827 56.3986 51.3827 56.3437 51.4376 56.2888C51.4376 56.2339 51.4925 56.179 51.4925 56.1241C51.4925 56.0692 51.5474 56.0143 51.5474 55.9594C51.5474 55.9045 51.6023 55.8496 51.6023 55.7947C51.6023 55.7398 51.6572 55.685 51.6572 55.6301C51.3827 55.4654 51.1631 55.2458 50.9435 55.0262L50.8886 54.9713L50.8338 54.9164C50.5593 54.587 50.3397 54.2577 50.1201 53.8734C49.1869 54.3126 48.1988 54.4772 47.2655 54.3675C47.1557 54.3675 47.046 54.3126 46.9362 54.3126C46.8264 54.3126 46.7166 54.2577 46.6068 54.2577C45.948 54.093 45.3991 53.7636 44.9599 53.2695C43.9718 52.1716 43.8071 50.4699 44.5208 48.7681C44.5757 48.6583 44.6305 48.5485 44.6854 48.4387C44.7403 48.3289 44.7952 48.2191 44.8501 48.1094C44.8501 48.1094 44.8501 48.0545 44.905 48.0545C44.8501 48.0545 44.8501 47.9996 44.7952 47.9996L44.7403 47.9447C44.6305 47.8898 44.5756 47.8349 44.4659 47.78C44.411 47.7251 44.3561 47.6702 44.2463 47.6702H44.1914L44.1365 47.6153L44.0816 47.5604H44.0267C43.9718 47.5055 43.862 47.4506 43.8071 47.3957C43.7522 47.3957 43.7522 47.3408 43.7522 47.3408C43.6424 47.2859 43.5875 47.1761 43.4777 47.1212C43.4777 47.1212 43.4777 47.1212 43.4228 47.0663C43.3131 46.9565 43.2033 46.7919 43.0935 46.6272C42.9837 46.5174 42.9288 46.3527 42.819 46.188C42.819 46.1331 42.7641 46.1331 42.7641 46.0782C42.7092 45.9684 42.6543 45.8586 42.5994 45.7488C42.5994 45.694 42.5445 45.6391 42.5445 45.5842C42.4896 45.5842 42.4347 45.6391 42.3798 45.694C42.27 45.7488 42.2151 45.8037 42.0505 45.8586C41.776 45.9684 41.4466 46.0782 41.0623 46.1331C40.5683 46.2429 40.0742 46.2978 39.4704 46.2978C38.7018 46.2978 37.9333 46.1331 37.1648 45.8037C36.3962 45.4744 35.7375 45.0352 35.2434 44.4862C35.1336 44.3765 35.0787 44.3216 35.0238 44.2118C34.9689 44.102 34.8591 44.0471 34.8042 43.9373C32.1143 40.4789 29.9734 33.562 29.8087 27.7431C29.8087 26.8648 29.8087 25.9315 29.8636 25.0532C29.8636 24.9983 29.8636 24.9983 29.8636 24.9434C29.8636 24.8885 29.8636 24.8885 29.8636 24.8336C29.8636 24.7787 29.8636 24.7238 29.8636 24.6689V24.614C29.8636 24.3396 29.9185 24.0651 29.9185 23.7906C29.9185 23.7357 29.9185 23.7357 29.9185 23.6808C29.9185 23.6259 29.9185 23.571 29.9185 23.4612C29.9185 23.4063 29.9185 23.3514 29.9185 23.2417V23.1319C29.9734 22.5829 30.0832 22.034 30.1381 21.485V21.3752C30.1381 21.3203 30.1381 21.2654 30.1381 21.2654C30.1381 21.2105 30.1381 21.1007 30.193 21.0458C30.4675 19.4539 30.8518 17.9717 31.3458 16.5444C30.9615 16.215 30.5773 15.9405 30.193 15.6112L30.1381 15.5563C30.0832 15.5014 30.0283 15.4465 29.9734 15.3916L29.8636 15.2818C29.8087 15.2269 29.7538 15.2269 29.7538 15.172C29.6989 15.1171 29.6989 15.1171 29.644 15.0622L29.5891 15.0073C29.5343 15.0073 29.5343 14.9524 29.5343 14.9524C29.4794 14.8975 29.4245 14.8975 29.4245 14.8426L29.3696 14.7877L29.3147 14.7328C29.2598 14.6779 29.2598 14.6779 29.2049 14.623C28.8755 15.3367 28.1619 16.9836 27.6129 19.399V19.4539C27.6129 19.5088 27.6129 19.5637 27.558 19.6185L27.5031 19.8381C27.5031 19.893 27.5031 19.893 27.5031 19.9479L27.4482 20.2773C27.3933 20.4969 27.3384 20.7165 27.2835 20.9909C27.2835 21.1007 27.2286 21.1556 27.2286 21.2654V21.3752C27.2286 21.4301 27.2286 21.4301 27.2286 21.485C27.064 22.3633 26.9542 23.2417 26.8993 24.12C26.8993 24.1749 26.8993 24.2298 26.8993 24.2847V24.5591C26.8993 24.7787 26.8993 24.9434 26.8444 25.163V25.2179C26.8444 25.4375 26.8444 25.712 26.7895 25.9864V26.1511C26.7895 26.3707 26.7895 26.5903 26.7895 26.8099V26.8648C26.7895 26.9197 26.7895 26.9746 26.7895 26.9746C26.7895 27.249 26.7895 27.5235 26.7895 27.7431C26.7895 27.798 26.7895 27.798 26.7895 27.8529V27.9078C26.7895 28.0725 26.7895 28.1823 26.7895 28.3469V28.4018C26.7895 28.5116 26.7895 28.6763 26.7895 28.7861C26.8444 29.5546 26.9542 30.3232 27.064 31.0917V31.1466C27.064 31.2015 27.064 31.2015 27.064 31.2564C27.2835 32.6288 27.6129 34.0012 27.9972 35.4285C28.0521 35.5932 28.107 35.703 28.107 35.8676C28.107 35.9225 28.107 35.9225 28.1619 35.9774C28.1619 36.0323 28.1619 36.0323 28.2168 36.0872C28.3265 36.3617 28.3814 36.6362 28.4912 36.9107C28.5461 37.0204 28.5461 37.1302 28.601 37.24L28.6559 37.3498C28.8755 38.0086 29.0951 38.6124 29.3696 39.2163C29.8636 40.4789 30.4126 41.5768 31.0164 42.5649C31.0164 42.6198 31.0713 42.6198 31.0713 42.6747L31.1262 42.7296C31.236 42.8943 31.3458 43.059 31.4556 43.2236C31.8399 43.8275 32.2241 44.4314 32.5535 44.8705V44.9254C32.5535 44.9803 32.6084 44.9803 32.6084 45.0352L32.6633 45.145L32.7182 45.1999L32.7731 45.2548C32.828 45.3097 32.828 45.3097 32.8829 45.3646C32.8829 45.3646 32.8829 45.4195 32.9378 45.4195L32.9927 45.4744C33.0476 45.5293 33.0476 45.5293 33.1025 45.5842C33.1574 45.694 33.2672 45.7488 33.3221 45.8037C33.5416 46.0782 33.7612 46.2978 34.0357 46.5174C34.0906 46.5723 34.1455 46.6272 34.2004 46.6272C34.2553 46.6821 34.3102 46.737 34.3651 46.737C34.7493 47.0663 35.1336 47.3408 35.5728 47.6153H35.6277C35.6826 47.6153 35.6826 47.6702 35.7375 47.6702C35.8473 47.7251 35.9021 47.78 36.0119 47.8349C36.1217 47.8898 36.2315 47.9447 36.3413 47.9996C36.3962 47.9996 36.3962 48.0545 36.4511 48.0545C36.6707 48.1643 36.8903 48.2191 37.1099 48.3289C37.8235 48.5485 38.592 48.6583 39.3606 48.6583C39.6899 48.6583 40.0742 48.6583 40.4585 48.6034C40.8428 48.5485 41.227 48.4936 41.6113 48.3838C41.7211 48.3838 41.8309 48.3289 41.8858 48.3289L42.4896 48.1643L42.27 48.7132C41.6113 50.4699 41.5564 52.1167 42.0505 53.4342V53.4891C42.0505 53.544 42.1054 53.5989 42.1054 53.6538C42.3249 54.093 42.5445 54.4772 42.8739 54.8066C43.2582 55.2458 43.7522 55.6301 44.3561 55.8496C45.1246 56.2339 46.0029 56.3986 46.9911 56.3986C47.1008 56.3986 47.2106 56.3986 47.3204 56.3986C47.4302 56.3986 47.54 56.3986 47.6498 56.3986C48.1988 56.3437 48.583 56.2888 48.583 56.2888L49.132 56.179L48.9673 56.728C48.3086 58.9787 49.0771 61.0098 50.9984 62.2175C50.9984 62.2175 51.0533 62.2175 51.0533 62.1626L51.1082 62.1077L51.218 62.0528C51.3827 61.943 51.5474 61.8333 51.7121 61.7235H51.767C51.8219 61.6686 51.8768 61.6686 51.9317 61.6137C52.0415 61.5039 52.1512 61.449 52.261 61.3392L52.3159 61.2843C52.3708 61.2294 52.4806 61.1745 52.5355 61.1196C52.5904 61.0647 52.5904 61.0647 52.6453 61.0098L52.7002 60.9549C52.81 60.9 52.8649 60.7902 52.9747 60.7353C52.9198 60.6804 52.8649 60.6805 52.81 60.6256C52.5904 60.5707 52.5904 60.5707 52.5355 60.5158Z" fill="#AF8C5A"/>
<path d="M29.2597 64.4134H29.3146H29.3695C29.4244 64.4134 29.5341 64.4134 29.589 64.3585C29.6439 64.3585 29.6439 64.3585 29.6988 64.3585H29.7537C29.8086 64.3585 29.8635 64.3036 29.9184 64.3036C29.9733 64.3036 29.9733 64.3036 30.0282 64.2487L30.0831 64.1938C30.138 64.1938 30.1929 64.1389 30.2478 64.1389C30.3027 64.1389 30.3027 64.084 30.3576 64.084L30.4125 64.0291C30.4674 63.9742 30.5223 63.9742 30.5772 63.9193C30.6321 63.9193 30.6321 63.8644 30.687 63.8644H30.7419C30.7968 63.8095 30.8517 63.8095 30.9066 63.7546C30.9614 63.7546 30.9614 63.6997 31.0163 63.6448C31.0712 63.5899 31.1261 63.5899 31.181 63.535C31.2359 63.4802 31.2359 63.4802 31.2908 63.4253C30.687 62.3273 30.3576 61.1196 30.3576 59.857V59.8022C30.3576 59.6375 30.3576 59.5277 30.3576 59.4179C30.2478 59.4179 30.0831 59.4179 30.0282 59.4179H29.9733C29.8086 59.4179 29.6439 59.4179 29.4793 59.363H29.3695C29.2048 59.363 29.095 59.3081 28.9852 59.3081C28.9303 59.3081 28.8754 59.3081 28.7656 59.2532C28.6009 59.1983 28.4362 59.1983 28.2716 59.1434C28.1618 59.1434 28.1069 59.0885 27.9971 59.0336H27.9422C27.8324 58.9787 27.7226 58.9787 27.6677 58.9238C27.5579 58.8689 27.4481 58.814 27.3383 58.814C27.2285 58.7591 27.1737 58.7591 27.0639 58.7042C27.0639 58.7042 27.0639 58.7042 27.009 58.7042C27.009 58.7042 27.009 58.7042 26.9541 58.7042C26.8443 58.6493 26.7345 58.5944 26.6247 58.5396C26.5698 58.5944 26.46 58.6493 26.4051 58.7042C26.4051 58.7042 26.4051 58.7042 26.3502 58.7591C26.2953 58.814 26.1855 58.9238 26.1306 59.0336C26.1306 59.0336 26.1306 59.0885 26.0757 59.0885C26.0208 59.1983 25.9659 59.2532 25.911 59.363L25.8562 59.4179L25.8013 59.4728V59.5277C25.8013 59.5277 25.8012 59.5826 25.7464 59.5826C25.7464 59.6375 25.6915 59.6375 25.6915 59.6924V59.7473C25.6366 59.8022 25.6366 59.857 25.5817 59.9668V60.0217V60.0766V60.1315C25.5268 60.2413 25.5268 60.3511 25.4719 60.4609V60.5158C25.4719 60.6256 25.417 60.7354 25.417 60.8452C25.417 60.955 25.417 61.1196 25.417 61.2294C25.417 62.6567 26.3502 63.9742 27.7226 64.4683C27.8324 64.5232 27.9422 64.5232 28.052 64.5781C28.1618 64.5781 28.2716 64.633 28.3814 64.633C28.546 64.633 28.7107 64.6879 28.8754 64.6879C29.0401 64.4683 29.1499 64.4683 29.2597 64.4134Z" fill="#AF8C5A"/>
<path d="M25.5816 63.3703C25.5816 63.3154 25.5267 63.3154 25.5267 63.2605C25.4718 63.2056 25.4718 63.1507 25.4169 63.0958L25.362 63.0409C25.362 62.986 25.3071 62.986 25.3071 62.9311C25.2522 62.8762 25.2522 62.8213 25.2522 62.7664L25.1973 62.7115C25.1973 62.6566 25.1425 62.6566 25.1425 62.6017C25.1425 62.5469 25.0876 62.492 25.0876 62.4371V62.3822V62.3273C25.0876 62.2724 25.0875 62.2724 25.0327 62.2175C25.0327 62.1626 24.9778 62.1077 24.9778 62.0528V61.9979V61.943C24.9778 61.8881 24.9778 61.8881 24.9778 61.8332C24.9778 61.7783 24.9778 61.6685 24.9229 61.6136V61.5587C24.9229 61.5038 24.9229 61.5038 24.9229 61.4489C24.9229 61.3392 24.9229 61.1745 24.9229 61.0647C24.9229 61.0098 24.9229 60.9 24.9229 60.8451V60.7902C24.9229 60.7353 24.9229 60.6804 24.9229 60.6255V60.5706C24.9229 60.5157 24.9229 60.4608 24.9229 60.4608V60.4059C24.9229 60.351 24.9229 60.2961 24.9229 60.2961C24.9229 60.2412 24.9229 60.2412 24.9229 60.1863C24.9229 60.1314 24.9229 60.1314 24.9778 60.0766C24.9778 60.0217 24.9778 60.0217 25.0327 59.9668C25.0327 59.9668 25.0327 59.9668 25.0327 59.9119V59.857C25.0327 59.8021 25.0327 59.8021 25.0876 59.7472C25.0876 59.7472 25.0876 59.7472 25.0876 59.6923C25.0876 59.6923 25.0876 59.6923 25.0876 59.6374C25.0876 59.5825 25.0876 59.5825 25.1425 59.5276V59.4727C25.1425 59.4727 25.1425 59.4727 25.1425 59.4178C25.1425 59.3629 25.1973 59.3629 25.1973 59.308C25.1973 59.2531 25.2522 59.2531 25.2522 59.1982C25.2522 59.1982 25.2522 59.1433 25.3071 59.1433C25.3071 59.0884 25.362 59.0884 25.362 59.0335C25.362 59.0335 25.362 58.9786 25.4169 58.9786C25.4169 58.9237 25.4718 58.9237 25.5267 58.8688C25.5267 58.8688 25.5267 58.814 25.5816 58.814C25.6365 58.7591 25.6365 58.7042 25.6914 58.6493C25.7463 58.5944 25.8012 58.5395 25.8561 58.4846C25.8561 58.4846 25.8561 58.4846 25.911 58.4297C25.9659 58.3748 25.9659 58.3748 26.0208 58.3199L26.0757 58.265L26.0208 58.2101C26.0208 58.2101 26.0208 58.2101 25.9659 58.2101C25.911 58.1552 25.8012 58.1003 25.7463 58.0454L25.6914 57.9905C25.6365 57.9356 25.5267 57.8807 25.4718 57.8258L25.4169 57.7709C25.362 57.716 25.2522 57.6611 25.1973 57.5514C24.868 57.222 24.5935 56.8926 24.3739 56.5632C23.4956 57.4416 22.8368 58.4846 22.5624 59.6923V59.7472C22.5624 59.8021 22.5075 59.857 22.5075 59.9119C22.5075 59.9668 22.5075 60.0217 22.4526 60.0766V60.1314C22.3977 60.5157 22.3428 60.9 22.3428 61.2843C22.3428 61.5038 22.3428 61.7234 22.3977 61.943C22.4526 61.943 22.4526 61.9979 22.5075 61.9979L22.6722 62.1077C22.7819 62.1626 22.8917 62.2724 23.0564 62.3273H23.1113L23.1662 62.3822C23.276 62.4371 23.3858 62.5469 23.4956 62.6017H23.5505C23.6054 62.6017 23.6054 62.6566 23.6603 62.6566C23.7701 62.7115 23.8799 62.7664 23.9896 62.8213L24.0445 62.8762C24.0994 62.8762 24.1543 62.9311 24.1543 62.9311C24.2092 62.986 24.319 62.986 24.3739 63.0409L24.4837 63.0958C24.5386 63.1507 24.5935 63.1507 24.6484 63.2056C24.7033 63.2056 24.7033 63.2605 24.7582 63.2605L24.8131 63.3154C24.9229 63.3703 25.0327 63.4252 25.1425 63.4801C25.3071 63.535 25.4169 63.5899 25.5816 63.6997C25.6365 63.4252 25.6365 63.4252 25.5816 63.3703Z" fill="#AF8C5A"/>
<path d="M32.7723 65.2368C32.6076 65.0721 32.4978 64.9623 32.388 64.8525C32.2782 64.7427 32.1684 64.578 32.0037 64.4133L31.9488 64.3584C31.839 64.2486 31.7842 64.1388 31.6744 64.0291L31.6195 64.0839C31.5097 64.1937 31.4548 64.2486 31.345 64.3035C31.2352 64.3584 31.1254 64.4682 31.0156 64.5231L30.9607 64.578C30.8509 64.6329 30.796 64.6878 30.6862 64.7427H30.6313C30.5216 64.7976 30.4118 64.8525 30.302 64.9074H30.2471C30.4667 64.9623 30.6313 64.9623 30.8509 65.0172C30.9058 65.0172 30.9607 65.0172 30.9607 65.0172H31.0705C31.2352 65.0721 31.3999 65.0721 31.6195 65.127C31.6744 65.127 31.7841 65.127 31.839 65.1819H31.9488C32.1135 65.1819 32.2233 65.2368 32.388 65.2368C32.4978 65.2368 32.6625 65.2917 32.7723 65.2917C32.8272 65.2917 32.8821 65.2917 32.937 65.2917C32.8272 65.2917 32.8272 65.2917 32.7723 65.2368Z" fill="#AF8C5A"/>
<path d="M26.46 48.6035C26.3502 48.4937 26.2953 48.4388 26.2404 48.3839C26.1855 48.329 26.1306 48.2741 26.0757 48.2192C25.9659 48.0545 25.8561 47.8898 25.7463 47.78C25.5816 47.9447 25.417 48.1094 25.2523 48.329C25.1974 48.3839 25.1425 48.4388 25.0876 48.5486C25.0327 48.6035 24.9778 48.6584 24.9778 48.7133C24.6484 49.2073 24.3739 49.7563 24.2093 50.3052C24.1544 50.415 24.1544 50.4699 24.0995 50.5797C23.9897 51.0738 23.8799 51.5678 23.8799 52.0619C23.8799 52.1168 23.8799 52.1717 23.8799 52.2815V52.3364C23.8799 52.3913 23.8799 52.3913 23.8799 52.4462V52.501C23.9348 53.7088 24.2641 54.8616 24.9229 55.8497C24.9778 55.9046 25.0327 55.9595 25.0327 56.0693C25.0876 56.1242 25.0876 56.1791 25.1425 56.234L25.1974 56.2888C25.2523 56.3437 25.3072 56.3986 25.3621 56.4535L25.417 56.5084C25.4719 56.5633 25.5268 56.6182 25.5816 56.6731L25.6365 56.728C25.6914 56.7829 25.7463 56.8378 25.8012 56.8927C25.8012 56.8927 25.8012 56.8927 25.8561 56.9476C25.9659 57.0574 26.0757 57.1672 26.1855 57.2221L26.2404 57.277C26.2404 57.277 26.2953 57.277 26.2953 57.3319C26.3502 57.3868 26.4051 57.3868 26.4051 57.4417L26.46 57.4965C26.5149 57.4965 26.5149 57.5514 26.5698 57.5514C26.6247 57.6063 26.6796 57.6063 26.7345 57.6612C26.7894 57.7161 26.8442 57.7161 26.8442 57.771C26.8991 57.8259 26.954 57.8259 27.0089 57.8808C27.1187 57.9357 27.2285 57.9906 27.2834 58.0455L27.3932 58.1004C27.4481 58.1553 27.5579 58.1553 27.6128 58.2102C27.6677 58.2102 27.6677 58.2102 27.7226 58.2651H27.7775C27.8324 58.2651 27.8324 58.32 27.8873 58.32H27.9422H27.9971C28.0519 58.3749 28.1617 58.3749 28.2715 58.4298H28.3264C28.4362 58.4847 28.6009 58.5396 28.7107 58.5396H28.7656C28.8754 58.5945 28.9852 58.5945 29.095 58.6494H29.1499C29.1499 58.6494 29.1499 58.6494 29.2048 58.6494C29.3146 58.7043 29.4792 58.7043 29.589 58.7043H29.6439C29.7537 58.7043 29.8635 58.7043 29.9733 58.7591C30.0282 58.7591 30.0282 58.7591 30.0831 58.7591C30.138 58.7591 30.2478 58.7591 30.3027 58.7591H30.3576C30.4674 58.7591 30.5223 58.7591 30.6321 58.7591H30.7418C30.7967 58.7591 30.7967 58.7591 30.8516 58.7591H31.181V59.0885V59.1434C31.181 59.2532 31.181 59.363 31.1261 59.4728C31.1261 59.5277 31.1261 59.5277 31.1261 59.5826C31.1261 59.6375 31.1261 59.6924 31.1261 59.7473C31.1261 59.8022 31.1261 59.8571 31.1261 59.912V59.9668V60.0217C31.1261 60.9001 31.3457 61.7235 31.6751 62.5469C31.73 62.6567 31.7848 62.7665 31.8397 62.8763C31.8397 62.8763 31.8397 62.8763 31.8397 62.9312L31.8946 63.041C31.9495 63.0959 31.9495 63.1508 32.0044 63.2057L32.1142 63.3704C32.1691 63.4253 32.224 63.5351 32.2789 63.59C32.3338 63.6998 32.3887 63.7546 32.4985 63.8644V63.9193C32.5534 64.0291 32.6083 64.084 32.6632 64.1389C32.7181 64.2487 32.8279 64.3036 32.8828 64.4134C32.9925 64.5232 33.0474 64.5781 33.1572 64.6879C33.4317 64.9624 33.7611 65.1819 34.0905 65.4015C34.0905 65.4015 34.0905 65.4015 34.1454 65.4015H34.2003C34.2552 65.4015 34.2552 65.4015 34.31 65.4015C34.3649 65.4015 34.3649 65.4015 34.4198 65.4015H34.6943C34.7492 65.4015 34.8041 65.4015 34.9139 65.4015H34.9688C35.0237 65.4015 35.0786 65.4015 35.1335 65.4015H35.4629C35.5726 65.4015 35.6275 65.4015 35.7373 65.4015C35.8471 65.4015 35.902 65.4015 36.0118 65.4015H36.2314C36.3412 65.4015 36.5059 65.4015 36.6157 65.4015C36.7255 65.4015 36.7804 65.4015 36.8901 65.4015H36.9999C37.1646 65.4015 37.3842 65.4015 37.5489 65.4015H37.7685C37.9881 65.4015 38.2076 65.4015 38.4272 65.4015H38.5919C38.8115 65.4015 38.9762 65.4015 39.1958 65.3466H39.4702C39.58 65.3466 39.6349 65.3466 39.7447 65.3466H40.0192C40.0741 65.3466 40.1839 65.3466 40.2388 65.3466H40.2937H40.3486C40.4035 65.3466 40.5132 65.3466 40.5681 65.3466H40.7877C40.8975 65.3466 41.0073 65.3466 41.1171 65.2917H41.2818C41.8307 65.2368 42.3797 65.1819 42.8738 65.127C42.3797 64.8526 41.8856 64.5232 41.5014 64.1389C41.4465 64.084 41.3916 64.0291 41.3367 63.9742L41.2818 63.9193C41.2269 63.8644 41.172 63.8095 41.172 63.8095C40.8975 63.5351 40.623 63.2057 40.4035 62.8763C39.6349 63.6449 38.5919 63.9742 37.6038 63.9742C36.5608 63.9742 35.4629 63.5351 34.6943 62.7116C33.9258 61.9431 33.5415 60.9001 33.5964 59.8571C33.5964 58.7591 34.0356 57.771 34.859 57.0574C34.5296 56.8378 34.2003 56.5633 33.9258 56.234C33.6513 55.9595 33.3768 55.6301 33.1572 55.3007C32.3887 56.0144 31.4006 56.3986 30.3576 56.3986C30.3576 56.3986 30.3576 56.3986 30.3027 56.3986H30.2478H30.1929H30.138C30.0831 56.3986 29.9733 56.3986 29.9184 56.3986C29.4792 56.3437 29.095 56.2339 28.7107 56.0693C28.6009 56.0144 28.4911 55.9595 28.3813 55.9046C28.2715 55.8497 28.1617 55.7948 28.1069 55.7399C28.1069 55.7399 28.1068 55.7399 28.052 55.7399C27.9422 55.685 27.8873 55.6301 27.7775 55.5203C27.6677 55.4654 27.5579 55.3556 27.503 55.2458C27.503 55.2458 27.503 55.2458 27.4481 55.1909C26.7345 54.4773 26.3502 53.5441 26.3502 52.501V52.4462C26.3502 52.3913 26.3502 52.3364 26.3502 52.2815C26.3502 52.2266 26.3502 52.1717 26.3502 52.1168V52.0619C26.4051 51.0738 26.8443 50.1405 27.5579 49.4818C27.0638 49.2073 26.7894 48.9328 26.46 48.6035Z" fill="#AF8C5A"/>
<path d="M62.2514 22.473C62.1965 22.4181 59.6713 20.332 54.6758 19.2341C54.6758 19.289 54.6758 19.289 54.6758 19.3439C54.6758 19.5635 54.6758 19.838 54.7307 20.0576C54.7856 20.9908 54.8954 21.8691 55.0601 22.8023C55.0601 22.9121 55.1149 23.0768 55.1149 23.2415C55.3345 24.1747 55.609 25.108 56.0482 26.2608C56.5971 27.2489 57.0363 27.7429 57.0363 27.7429L57.0912 27.7978C57.5852 28.4017 59.0674 30.1584 61.2633 29.28C61.7573 29.0604 62.3063 28.7311 62.7454 28.237C63.2395 27.7429 63.5689 27.2489 63.7885 26.6999C64.6119 24.3943 62.8003 22.9121 62.2514 22.473Z" fill="#AF8C5A"/>
<path d="M36.1766 19.838L35.7923 19.5635C35.6276 19.4537 35.4629 19.3439 35.2983 19.2341C35.1885 19.3988 35.1885 19.6184 35.1336 19.7831C35.0787 20.2223 35.2434 20.6614 35.5178 20.9908C35.7923 21.3202 36.2315 21.5397 36.6707 21.5397L39.0861 21.7044C38.9214 21.5946 38.7567 21.4848 38.5371 21.3202L38.3724 21.2104C38.2626 21.1555 38.1528 21.1006 38.0979 20.9908C37.9332 20.881 37.7686 20.7712 37.6039 20.6614C37.549 20.6065 37.4941 20.6065 37.4392 20.5516L37.0549 20.332C36.7804 20.2223 36.506 20.0576 36.1766 19.838Z" fill="#AF8C5A"/>
<path d="M43.4228 25.8765C43.3679 25.8216 43.3679 25.7667 43.313 25.7667C43.2581 25.6569 43.2032 25.602 43.1483 25.4922C43.1483 25.4373 43.0934 25.4373 43.0934 25.3824C43.0385 25.2726 42.9836 25.2177 42.8738 25.108L42.8189 25.0531L42.764 24.9982C42.764 24.9433 42.7091 24.9433 42.6542 24.8884L42.5445 24.7786C42.4896 24.7237 42.4896 24.7237 42.4347 24.6688L42.3798 24.6139L42.3249 24.559L42.27 24.4492C42.1602 24.2845 42.0504 24.1747 41.9406 24.0649C41.9406 24.0649 41.9406 24.0649 41.8857 24.01L41.8308 23.9551C41.7759 23.9002 41.721 23.8454 41.721 23.8454C41.6112 23.7905 41.5563 23.6807 41.4465 23.6258L41.3916 23.5709L41.3368 23.516C41.2819 23.4611 41.227 23.4062 41.1721 23.4062L41.0623 23.2964L41.0074 23.2415L40.9525 23.1866C40.7878 23.0219 40.5682 22.8572 40.4035 22.7474H40.3486C40.2388 22.6377 40.129 22.5828 40.0192 22.473L36.1766 22.1985C36.1217 22.1985 36.1217 22.1985 36.0668 22.1985C35.6825 22.1985 35.2982 22.3632 34.9689 22.5828C34.914 22.6376 34.8042 22.7474 34.7493 22.8023C34.6944 22.8572 34.6944 22.9121 34.6395 22.967C34.5846 23.0219 34.5846 23.0768 34.5297 23.1317C34.4199 23.2964 34.4199 23.516 34.365 23.7356C34.3101 24.1747 34.4748 24.6139 34.7493 24.9433C35.0238 25.2726 35.4629 25.4922 35.9021 25.4922L43.4228 26.0412C43.4777 25.9863 43.4228 25.9314 43.4228 25.8765Z" fill="#AF8C5A"/>
<path d="M34.3093 27.6882C34.2545 28.1274 34.4191 28.5665 34.6936 28.8959C34.9681 29.2253 35.4073 29.4449 35.8464 29.4449L44.8493 30.1036C44.8493 29.9938 44.8493 29.884 44.8493 29.7742C44.8493 29.7193 44.8493 29.7193 44.8493 29.6644V29.6095C44.8493 29.5547 44.8493 29.4449 44.8493 29.39C44.8493 29.3351 44.8493 29.2253 44.7944 29.1704C44.7944 29.1155 44.7944 29.1155 44.7944 29.0606V29.0057C44.7395 28.5665 44.5748 28.1274 44.465 27.7431L44.4101 27.6882C44.3552 27.5784 44.3552 27.5235 44.3004 27.4137C44.3004 27.3588 44.2455 27.3588 44.2455 27.3039C44.1906 27.249 44.1905 27.1392 44.1357 27.0843C44.0808 26.9746 44.0259 26.9197 43.971 26.8099L44.0808 26.755H44.0259H43.971C43.971 26.755 43.971 26.755 43.971 26.7001L36.1758 26.1511C36.1209 26.1511 36.1209 26.1511 36.066 26.1511C35.0779 26.1511 34.3642 26.8099 34.3093 27.6882Z" fill="#AF8C5A"/>
<path d="M44.1357 33.9463C44.1906 33.8365 44.1906 33.7267 44.2455 33.6718V33.6169C44.3004 33.3973 44.3553 33.2327 44.4102 33.068C44.4102 32.9582 44.4651 32.8484 44.4651 32.7935C44.4651 32.7386 44.4651 32.7386 44.4651 32.6837V32.6288C44.4651 32.5739 44.4651 32.519 44.52 32.4641C44.52 32.4092 44.5749 32.2994 44.5749 32.2445V32.1896C44.6847 31.6956 44.7396 31.2015 44.7945 30.8172L36.5602 30.2134C36.121 30.1585 35.6818 30.3232 35.3524 30.5977C35.0231 30.8721 34.8035 31.3113 34.8035 31.7505C34.7486 32.1896 34.9133 32.6288 35.1878 32.9582C35.4622 33.2876 35.9014 33.5071 36.3406 33.5071L37.6581 33.6169C37.713 33.6169 37.713 33.6169 37.7679 33.6169L44.1357 34.0561V33.9463Z" fill="#AF8C5A"/>
<path d="M43.6422 35.648L43.6971 35.4833C43.6971 35.4833 43.6971 35.4833 43.6971 35.4284C43.6971 35.3735 43.8069 35.0441 43.9167 34.6599L37.6037 34.2207C36.7253 34.2207 36.0117 34.8794 35.9568 35.7578C35.9019 36.1969 36.0666 36.6361 36.3411 36.9655C36.6156 37.2949 37.0547 37.5144 37.4939 37.5144L43.0383 37.8987C43.203 37.1851 43.3677 36.4714 43.6422 35.648Z" fill="#AF8C5A"/>
<path d="M42.4892 39.9847C42.4892 39.82 42.5441 39.7102 42.599 39.4907L42.6539 39.326C42.6539 39.2162 42.7088 39.0515 42.7637 38.9417L42.8186 38.8319C42.8186 38.7221 42.8735 38.6123 42.8735 38.5574L39.3053 38.283C39.2504 38.283 39.2504 38.283 39.1955 38.283C38.8112 38.283 38.4269 38.4476 38.0976 38.6672C37.7682 38.9417 37.5486 39.3809 37.5486 39.82C37.4937 40.2592 37.6584 40.6984 37.9329 41.0277C38.2074 41.3571 38.6465 41.5767 39.0857 41.5767L42.2696 41.7963C42.2696 41.1924 42.3794 40.5337 42.4892 39.9847Z" fill="#AF8C5A"/>
<path d="M54.6758 18.1362C56.8167 17.1481 59.836 16.8187 61.3182 16.7089C58.9576 15.117 57.1461 15.1719 55.8286 15.1719C55.4992 15.1719 55.2247 15.1719 54.9503 15.1719C54.8405 15.6659 54.6758 16.7089 54.6758 18.1362Z" fill="#AF8C5A"/>
<path d="M58.299 37.9535C57.4756 38.3927 56.5423 38.2829 55.7738 37.6791C55.4993 38.5574 54.7857 39.2161 53.9074 39.3259C53.7976 39.3259 53.6878 39.3259 53.578 39.3259C52.8094 39.3259 52.0958 38.9417 51.6566 38.2829C51.1626 39.0515 50.2842 39.4357 49.4059 39.271C48.5276 39.1612 47.8139 38.5025 47.5395 37.6242C46.8258 38.1731 45.8377 38.2829 45.0143 37.8987C44.5202 37.6791 44.1908 37.2948 43.9164 36.8007L43.8066 37.185C43.7517 37.2948 43.7517 37.4046 43.6968 37.5144L43.587 37.7889C43.587 37.8438 43.587 37.8987 43.5321 37.8987C43.5321 37.9535 43.5321 38.0084 43.4772 38.0633V38.1182V38.1731L43.4223 38.4476C43.4223 38.5025 43.4223 38.5025 43.4223 38.5574V38.6123C43.4223 38.6672 43.3674 38.777 43.3674 38.8319L43.3125 39.0515C43.3125 39.1612 43.2576 39.271 43.2576 39.3808V39.4357C43.2576 39.4906 43.2576 39.4906 43.2576 39.5455C43.2027 39.7102 43.2027 39.8749 43.1478 40.0396C43.038 40.6983 42.8733 41.5218 42.8184 42.3452C42.7086 43.5529 42.8184 44.541 43.0929 45.3096C43.1478 45.4193 43.1478 45.4742 43.2027 45.584C43.2576 45.6389 43.2576 45.6938 43.3125 45.7487V45.8036C43.3125 45.8585 43.3674 45.9134 43.3674 45.9134V45.9683C43.4223 46.0232 43.4223 46.0781 43.4772 46.0781C43.4772 46.0781 43.4772 46.0781 43.4772 46.133C43.5321 46.1879 43.5321 46.1879 43.587 46.2428C43.6419 46.2977 43.6419 46.3526 43.6968 46.3526C43.8066 46.4624 43.8615 46.5173 44.0261 46.6271L44.081 46.6819C44.1908 46.7917 44.3006 46.8466 44.4104 46.9015C44.4104 46.9015 44.4653 46.9015 44.4653 46.9564C44.5751 47.0113 44.6849 47.0662 44.7398 47.1211C44.7947 47.176 44.8496 47.176 44.9045 47.176C44.9594 47.2309 45.0692 47.2309 45.1241 47.2858C46.0024 47.6701 47.1003 47.7799 48.3629 47.6152C49.7902 47.4505 50.943 46.9564 51.1626 46.9015H51.2175C51.3273 46.9015 51.437 46.9564 51.5468 47.0113C51.6017 47.1211 51.6566 47.2309 51.6017 47.3407V47.3956C49.8451 49.8659 49.6804 52.7754 51.1626 54.3673C51.3822 54.5869 51.6566 54.8065 52.0409 54.9712C52.1507 55.0261 52.2605 55.081 52.4252 55.1359C52.4801 55.1359 52.4801 55.1908 52.535 55.1908H52.5899C52.6997 55.2457 52.8094 55.2457 52.8643 55.3006C52.9192 55.3006 52.9741 55.3555 53.029 55.3555C53.1388 55.4103 53.2486 55.4103 53.3584 55.4652L53.5231 55.5201C53.6329 55.575 53.7976 55.6299 53.9074 55.6848H53.9623C54.3465 55.8495 54.7857 55.9593 55.1699 56.124H55.2248L55.2797 56.1789C55.3346 56.1789 55.3895 56.2338 55.4444 56.2338C55.664 56.3436 55.8287 56.3985 55.9934 56.5083C55.9934 56.5083 55.9934 56.5083 56.0483 56.5083L56.1032 56.5632C56.5423 55.9044 56.9266 55.2457 57.3109 54.5869L57.3658 54.532C57.4756 54.3124 57.5854 54.1477 57.6951 53.9282C57.75 53.7635 57.8598 53.5439 57.9696 53.3243L58.0245 53.2145C58.848 51.403 59.3969 49.4267 59.7812 47.2858C60.4399 43.3882 60.3301 39.9298 59.3969 36.3616C59.2322 37.2399 58.848 37.734 58.299 37.9535Z" fill="#AF8C5A"/>
<path d="M57.3658 30.9819L57.3109 30.8721C57.256 30.7074 57.1462 30.5427 57.0913 30.3232L56.7619 29.6095C56.5423 29.1155 56.3227 28.6214 56.1032 28.1273C55.8287 27.4686 55.6091 26.9745 55.3895 26.4805C55.1699 25.9864 55.0052 25.4924 54.8955 25.0532C54.7308 24.5591 54.621 24.0651 54.5112 23.571C54.5112 23.4612 54.4563 23.3514 54.4563 23.2965C54.4014 23.1318 54.4014 23.022 54.3465 22.8574C54.1269 21.5948 54.0171 20.2773 53.9622 18.9598C53.9622 18.9049 53.9622 18.7951 53.9622 18.7402C53.9622 18.6853 53.9622 18.6304 53.9622 18.5755V18.4657C53.9622 16.8188 54.1269 15.5562 54.2367 14.9524V14.8975C54.2367 14.8975 54.1818 14.8975 54.1818 14.8426H54.1269C54.072 14.8426 54.072 14.7877 54.0171 14.7877C54.0171 14.7877 53.9622 14.7877 53.9622 14.7328H53.9073C53.9073 14.7328 53.8524 14.7328 53.8524 14.6779H53.7975H53.7426C53.7426 14.6779 53.7427 14.6779 53.6878 14.6779C53.6878 14.6779 53.6878 14.6779 53.6329 14.6779C53.578 14.6779 53.5231 14.623 53.4682 14.623C51.8762 14.0741 49.5157 14.129 48.1982 15.3367C47.9786 15.5562 47.8139 15.7209 47.6492 15.9405C47.5943 15.9954 47.5943 15.9954 47.5394 16.0503C47.4846 16.1052 47.4845 16.1052 47.4296 16.1601C47.3748 16.215 47.3199 16.2699 47.3199 16.3797C47.265 16.4346 47.265 16.4895 47.2101 16.5444C47.1552 16.5993 47.1552 16.6542 47.1003 16.764C47.0454 16.8188 47.0454 16.9286 46.9905 16.9835C46.4964 18.1363 46.3866 19.6734 46.3317 22.3084V22.6927C46.2768 23.9553 46.2219 25.3826 46.1122 27.1392C46.1122 27.3039 46.1122 27.4686 46.0573 27.6882C46.0573 27.798 46.0573 27.9627 46.0024 28.0724V28.1273V28.1822C46.0024 28.3469 45.9475 28.5116 45.9475 28.6214V28.6763C45.9475 28.841 45.8926 29.0057 45.8926 29.1704C45.7828 29.884 45.6181 30.5976 45.4534 31.3113C45.4534 31.3662 45.3985 31.4211 45.3985 31.5309V31.5858C45.3985 31.6407 45.3985 31.6407 45.3985 31.6956V31.7504C45.3436 32.3543 45.673 32.9033 46.222 33.2326C46.8258 33.562 47.5394 33.3424 47.9786 32.7935C48.0335 32.7386 48.1433 32.6837 48.2531 32.6837C48.308 32.6837 48.308 32.6837 48.3629 32.6837C48.4727 32.7386 48.5825 32.8484 48.5825 32.9582C48.5825 33.6718 49.0765 34.2207 49.7353 34.3305C50.394 34.4403 50.9979 34.0561 51.2175 33.3973C51.2724 33.2875 51.3821 33.1777 51.4919 33.1777C51.6017 33.1777 51.7664 33.2875 51.7664 33.3973C51.986 34.0561 52.6447 34.4403 53.2486 34.3305C53.9073 34.2207 54.4014 33.6718 54.4014 32.9582C54.4014 32.8484 54.5112 32.6837 54.621 32.6837C54.7308 32.6288 54.8955 32.6837 54.9504 32.7935C55.3895 33.3424 56.1032 33.5071 56.707 33.2326C57.1462 33.013 57.4207 32.6288 57.4756 32.1347C57.4756 31.97 57.4756 31.6407 57.4756 31.476C57.5304 31.3113 57.4755 31.1466 57.3658 30.9819ZM50.7234 19.0147C50.0097 19.0147 49.4059 18.4108 49.4059 17.6972C49.4059 16.9835 50.0097 16.3797 50.7234 16.3797C51.437 16.3797 52.0409 16.9835 52.0409 17.6972C52.0409 18.4657 51.437 19.0147 50.7234 19.0147Z" fill="#AF8C5A"/>
<path d="M45.3439 37.4046C46.1124 37.7889 46.9908 37.5693 47.5397 36.8557C47.5946 36.7459 47.7593 36.691 47.8691 36.7459C47.9789 36.8008 48.0887 36.9106 48.0887 37.0203C48.0887 37.8987 48.6925 38.6123 49.516 38.7221C50.3394 38.8319 51.1079 38.3378 51.3824 37.5144C51.4373 37.4046 51.5471 37.2948 51.6569 37.2948C51.7667 37.2948 51.9314 37.4046 51.9314 37.5144C52.2058 38.3378 53.0293 38.8319 53.7978 38.7221C54.6212 38.6123 55.2251 37.8987 55.2251 37.0203C55.2251 36.9106 55.3349 36.7459 55.4447 36.7459C55.5545 36.691 55.7192 36.7459 55.7741 36.8557C56.323 37.5693 57.2013 37.7889 57.9699 37.4046C58.4639 37.1301 58.8482 36.6361 58.9031 35.9773C58.958 35.5931 58.958 35.1539 58.9031 35.0441C58.9031 34.9892 58.8482 34.8794 58.8482 34.8245C58.7933 34.7147 58.7933 34.6598 58.7384 34.55V34.4951C58.6835 34.3854 58.6835 34.2756 58.6286 34.2207C58.5737 34.056 58.5188 33.8913 58.4639 33.7266C58.409 33.6717 58.409 33.5619 58.3542 33.507V33.4521C58.2993 33.3423 58.2992 33.2325 58.2444 33.1228C58.1895 33.013 58.1895 32.9581 58.1346 32.8483C58.1346 32.7934 58.0797 32.7385 58.0797 32.6836C57.915 33.1777 57.5856 33.5619 57.0915 33.7815C56.4328 34.1109 55.6094 34.056 55.0055 33.6168C54.7859 34.3305 54.1821 34.8794 53.4135 34.9892C53.3038 34.9892 53.194 34.9892 53.1391 34.9892C52.5352 34.9892 51.9314 34.6598 51.5471 34.1658C51.1079 34.7696 50.3943 35.099 49.6257 34.9892C48.9121 34.8794 48.3082 34.3305 48.0338 33.6168C47.4299 34.056 46.6065 34.1109 45.9477 33.7815C45.5635 33.6168 45.289 33.2874 45.0694 32.9581C45.0145 33.1777 44.9596 33.3423 44.9047 33.5619C44.9047 33.6168 44.8498 33.7266 44.8498 33.7815V33.8364C44.7949 33.9462 44.7949 34.056 44.74 34.2207C44.74 34.3305 44.6851 34.3854 44.6851 34.4951L44.5754 34.9343C44.5205 35.1539 44.4656 35.4284 44.3558 35.648C44.3009 36.3616 44.6851 37.0752 45.3439 37.4046Z" fill="#AF8C5A"/>
<path d="M50.7232 18.4108C51.087 18.4108 51.3819 18.1158 51.3819 17.752C51.3819 17.3882 51.087 17.0933 50.7232 17.0933C50.3594 17.0933 50.0645 17.3882 50.0645 17.752C50.0645 18.1158 50.3594 18.4108 50.7232 18.4108Z" fill="#AF8C5A"/>
<path d="M178.643 98.2139C178.643 98.2139 172.284 79.0878 170.993 75.3619C170.198 73.027 169.452 72.4309 166.124 72.4309C163.143 72.4309 159.765 72.4309 159.765 72.4309V74.8155C162.945 74.8155 163.74 75.4116 164.485 77.6471C163.193 79.0878 159.268 83.6582 154.897 90.1163C150.128 97.1706 150.724 103.877 155.592 104.821C160.312 105.765 163.441 101.642 164.236 100.449C167.118 96.3758 168.459 90.9112 168.459 90.9112H168.906L172.085 100.499C172.88 102.834 173.625 103.43 176.954 103.43C177.004 103.43 177.053 103.43 177.103 103.43C178.196 103.43 179.338 103.43 180.332 103.43C181.077 103.43 181.723 103.43 182.22 103.43V101.046C179.984 100.847 179.289 100.151 178.643 98.2139ZM160.461 96.7732C157.48 96.3758 157.132 92.1035 160.063 87.8312C162.299 84.5027 164.236 82.1182 165.18 81.0252H165.627C166.223 82.764 166.82 84.5027 167.565 86.7879C166.82 90.9112 162.994 97.0713 160.461 96.7732Z" fill="#AF8C5A"/>
<path d="M96.326 98.2139C96.326 98.2139 90.1162 79.4852 88.6755 75.3619C87.8807 73.027 87.1355 72.4309 83.8071 72.4309C80.8264 72.4309 77.4483 72.4309 77.4483 72.4309V74.8155C80.1806 74.8155 81.1244 75.2626 81.8199 76.8026C80.578 78.6407 77.3489 83.4595 73.9708 90.0667C71.6856 94.5377 70.0462 98.8597 71.5365 102.138C71.8843 102.884 72.4308 103.629 73.2753 104.175C74.4676 104.97 76.1069 105.268 78.2431 104.722C81.4225 103.927 83.509 100.648 83.509 100.648L82.4658 99.3565C82.4658 99.3565 80.2302 100.499 78.0444 99.3068C76.405 98.4126 76.1069 96.4752 76.2063 95.0345C76.3553 92.8486 77.3986 90.017 78.8392 87.235C80.3793 84.2046 81.8199 81.8698 82.7141 80.4788H83.1612C83.1612 80.4788 89.8678 100.499 89.8678 100.549C90.6627 102.884 91.4078 103.48 94.7363 103.48C94.7859 103.48 94.8356 103.48 94.8853 103.48C95.084 103.48 95.3324 103.48 95.5311 103.48H98.0647C98.8099 103.48 99.4557 103.48 99.9525 103.48V101.095C97.717 100.847 97.0215 100.151 96.326 98.2139Z" fill="#AF8C5A"/>
<path d="M113.316 71.8347C106.808 71.8347 101.84 78.9884 101.84 88.3776C101.84 97.8164 106.808 104.92 113.316 104.92C119.824 104.92 124.792 97.7667 124.792 88.3776C124.792 78.9884 119.874 71.8347 113.316 71.8347ZM117.39 100.251C114.31 101.294 110.236 96.9719 107.951 90.2653C105.666 83.5091 106.212 77.5974 109.292 76.5541C112.372 75.5109 116.446 79.8329 118.731 86.5395C121.016 93.2957 120.47 99.2074 117.39 100.251Z" fill="#AF8C5A"/>
<path d="M154.002 74.8651C154.002 74.269 153.853 73.8716 153.356 73.3748C152.412 72.4309 150.773 72.4309 148.19 72.4309H127.027V73.2258V74.8155H127.226C129.362 74.8155 131.051 76.5045 131.051 78.6407V103.43H137.708V78.0445C137.708 76.5045 138.95 75.3122 140.44 75.3122H141.781C145.308 75.3122 146.054 75.7593 146.6 76.1071C148.14 77.051 148.587 78.6904 148.985 80.2304C149.332 81.6214 149.382 83.5091 149.481 84.4034H151.22L153.853 76.0574C153.952 75.66 154.002 75.2626 154.002 74.8651Z" fill="#AF8C5A"/>
<path d="M92.6991 31.2974H81.6706H75.0137H70.9897V32.0922V33.6819H71.1885C73.3246 33.6819 75.0137 35.371 75.0137 37.5071V62.2966H81.6706V36.911C81.6706 35.371 82.9125 34.1787 84.4029 34.1787H89.9171C91.4572 34.1787 92.6494 35.4207 92.6494 36.911V62.2966H99.356V37.4575C99.356 35.3213 101.045 33.6322 103.181 33.6322H103.38V32.0425V31.2974H99.356H92.6991Z" fill="#AF8C5A"/>
<path d="M154.101 31.2974C154.052 31.2974 152.412 31.2974 152.412 31.2974H135.075V33.6819H135.273C137.41 33.6819 139.099 35.371 139.099 37.5071V62.2966H145.756V56.3849C145.756 51.7648 149.68 49.2312 154.101 48.0389C159.119 46.6479 161.951 43.7169 161.951 39.0968C161.951 34.4271 158.722 31.2974 154.101 31.2974ZM151.22 45.6544C148.687 47.2441 147.196 48.337 146.203 49.6286H145.756V36.8613C145.756 35.3213 146.997 34.129 148.488 34.129H150.425C151.965 34.129 153.307 34.5761 154.201 35.4703C155.145 36.3645 155.592 37.7059 155.592 39.2459C155.691 42.5743 153.605 44.164 151.22 45.6544Z" fill="#AF8C5A"/>
<path d="M131.895 57.0305C131.895 57.0305 125.537 37.9044 124.245 34.1786C123.45 31.8437 122.705 31.2476 119.377 31.2476C116.396 31.2476 113.018 31.2476 113.018 31.2476V33.6321C116.197 33.6321 116.992 34.2283 117.737 36.4638C116.445 37.9044 112.521 42.4748 108.149 48.933C103.38 55.9873 103.976 62.6939 108.845 63.6377C113.564 64.5816 116.694 60.4583 117.489 59.2661C120.37 55.1925 121.711 49.7278 121.711 49.7278H122.158L125.338 59.3157C126.133 61.6506 126.878 62.2468 130.206 62.2468C130.256 62.2468 130.306 62.2468 130.355 62.2468C131.448 62.2468 132.591 62.2468 133.584 62.2468C134.33 62.2468 134.975 62.2468 135.472 62.2468V59.8622C133.237 59.7132 132.591 59.0177 131.895 57.0305ZM113.713 55.5899C110.732 55.1925 110.385 50.9201 113.316 46.6478C115.551 43.3194 117.489 40.9348 118.433 39.8419H118.88C119.476 41.5806 120.072 43.3194 120.817 45.6046C120.072 49.7279 116.247 55.8879 113.713 55.5899Z" fill="#AF8C5A"/>
<path d="M184.256 37.7057C184.902 37.0599 185.647 37.0599 186.045 37.3083C186.392 37.507 186.591 38.0038 186.691 38.4509C186.74 38.6496 186.79 38.8483 186.84 39.0471C187.187 40.438 187.187 42.2761 187.287 43.1703H189.025C189.025 43.1703 190.814 37.6064 191.36 35.7683C191.559 35.1225 191.708 33.7315 191.062 32.6386C190.863 32.2908 190.416 31.496 189.274 31.0489C187.585 30.4527 185.796 30.7011 184.604 31.496C182.865 32.6882 181.574 34.9734 180.58 38.2522C179.785 40.8851 178.891 43.9155 178.494 45.3562C177.152 45.3562 175.861 45.3562 174.966 45.3562V37.4573C174.966 35.3709 176.656 33.6321 178.792 33.6321H178.99V32.0424V31.2973H174.966H168.31H164.286V32.0921V33.6818H164.484C166.571 33.6818 168.31 35.3709 168.31 37.507V62.2468H174.966V49.0821V48.2375H177.848C180.828 48.2375 183.213 51.0692 183.213 60.4584C183.213 61.1042 183.213 61.7003 183.163 62.2468H189.771C189.87 61.1539 189.92 59.9616 189.92 58.6203C189.92 50.9698 188.38 47.4427 186.194 46.151C185.15 45.5549 183.213 45.4059 182.468 45.4059C182.12 45.4059 181.723 45.4059 181.325 45.4059C181.524 44.5613 181.921 43.071 182.518 41.2329C183.064 39.5935 183.66 38.3019 184.256 37.7057Z" fill="#AF8C5A"/>
</g>
<defs>
<clipPath id="clip0_1043_62859">
<rect width="192" height="106" fill="white"/>
</clipPath>
</defs>
</svg>
