<svg width="170" height="94" viewBox="0 0 170 94" fill="none" xmlns="http://www.w3.org/2000/svg">
<g id="logo_dark_together2008__only">
<g id="logo_dark_together2008">
<path d="M13.6754 12.4532L13.2891 23.8792C13.257 24.4908 12.7742 24.9414 12.1626 24.9414H3.85861C3.27927 24.9414 2.79648 25.392 2.76429 25.9713L0.929688 55.0032H1.1228L11.4223 59.9277C11.8408 60.1208 12.0661 60.5392 12.0661 60.9576L11.7442 70.71C11.712 71.3216 12.1948 71.8365 12.8064 71.8687H17.248C17.8596 71.8687 18.3424 71.3859 18.3745 70.8066L20.0804 19.0835C20.1126 18.3432 20.7241 17.7639 21.4966 17.7639H35.1757C35.9482 17.7639 36.5597 18.3432 36.5919 19.1157L38.2977 70.8388C38.3299 71.4503 38.8127 71.9009 39.4243 71.9009H43.8338C44.4453 71.9009 44.9603 71.3859 44.9603 70.7744V70.7422L43.0291 12.4532C42.9969 11.6807 42.3854 11.1014 41.6129 11.1014H15.0916C14.3191 11.1014 13.6754 11.7129 13.6754 12.4532ZM10.7464 53.7479L7.1416 52.0099C6.72318 51.8168 6.46569 51.3984 6.49788 50.9478L7.75314 31.2499C7.78532 30.6705 8.26811 30.2199 8.87965 30.2199H11.9373C12.5489 30.2199 13.0638 30.7027 13.0638 31.3142V31.3464L12.3558 52.7502C12.3236 53.3617 11.8086 53.8445 11.1971 53.8123C11.0361 53.8445 10.8752 53.8123 10.7464 53.7479ZM57.6094 55.7435V12.1957C57.6094 11.5841 57.1266 11.0692 56.4829 11.0692H52.1056C51.4941 11.0692 51.0113 11.552 50.9791 12.1957V70.7744C50.9791 71.3859 51.4619 71.9009 52.1056 71.9009H57.8669C58.3175 71.9009 58.7037 71.6434 58.8969 71.225L71.7391 42.1931C71.9966 41.646 72.6403 41.3885 73.1875 41.6138C73.6059 41.8069 73.8634 42.1931 73.8634 42.6437V70.7744C73.8634 71.3859 74.3462 71.9009 74.9899 71.9009H79.3994C80.0109 71.9009 80.5259 71.3859 80.5259 70.7744V28.5462C80.5259 27.9347 80.0431 27.4519 79.3994 27.4519H73.2519C72.8012 27.4519 72.415 27.7094 72.2541 28.1278L59.7659 56.1941C59.5084 56.7412 58.8647 56.9987 58.3175 56.7734C57.8991 56.6125 57.6416 56.1941 57.6094 55.7435ZM106.758 49.6281H94.4947C93.8831 49.6281 93.4004 49.1453 93.3682 48.5338V12.1957C93.3682 11.5841 92.8854 11.1014 92.2738 11.0692H87.8643C87.2528 11.0692 86.77 11.552 86.7378 12.1957V70.7744C86.7378 71.3859 87.2206 71.9009 87.8643 71.9009H92.2738C92.8854 71.9009 93.4003 71.4181 93.4003 70.8066V56.0332C93.4003 55.4216 93.8831 54.9388 94.5269 54.9388H106.758C107.369 54.9388 107.852 55.4216 107.884 56.0332V70.7744C107.884 71.3859 108.367 71.9009 109.011 71.9009H113.42C114.032 71.9009 114.547 71.3859 114.547 70.7744V28.5462C114.547 27.9347 114.064 27.4519 113.42 27.4519H109.011C108.399 27.4519 107.916 27.9347 107.884 28.5462V48.566C107.852 49.1453 107.369 49.6603 106.758 49.6281ZM157 11.1014H147.666C147.119 11.1014 146.636 11.4876 146.572 12.0347L137.527 70.6135C137.431 71.225 137.849 71.8044 138.461 71.9009C138.525 71.9009 138.59 71.9009 138.654 71.9009H143.031C143.579 71.9009 144.029 71.5147 144.126 70.9675L146.443 55.9044C146.54 55.3573 146.99 54.971 147.537 54.971H157.161C157.708 54.971 158.159 55.3573 158.255 55.9044L160.573 70.9675C160.669 71.5147 161.12 71.9009 161.667 71.9009H166.044C166.656 71.9009 167.171 71.4181 167.171 70.8066C167.171 70.7422 167.171 70.6778 167.171 70.6135L158.127 12.0347C157.998 11.4876 157.547 11.1014 157 11.1014ZM147.57 48.3729L151.207 24.7483C151.303 24.1367 151.882 23.7183 152.462 23.8149C152.945 23.8792 153.331 24.2655 153.395 24.7483L157.032 48.3729C157.129 48.9844 156.71 49.5637 156.099 49.6603C156.035 49.6603 155.97 49.6603 155.906 49.6603H148.6C147.988 49.6603 147.473 49.1453 147.473 48.5338C147.57 48.5016 147.57 48.4372 147.57 48.3729ZM140.07 11.1014H112.744C112.133 11.1014 111.618 11.5841 111.618 12.1957V16.6052C111.618 17.2167 112.1 17.7317 112.712 17.7317C112.712 17.7317 112.712 17.7317 112.744 17.7317H121.982C122.593 17.7317 123.108 18.2467 123.108 18.8582V70.7744C123.108 71.3859 123.591 71.9009 124.202 71.9009H128.612C129.223 71.9009 129.738 71.3859 129.738 70.7744V18.826C129.738 18.2145 130.253 17.7317 130.833 17.7317H140.07C140.682 17.7317 141.197 17.2489 141.197 16.6374V12.1957C141.197 11.5841 140.682 11.1014 140.07 11.1014Z" fill="#16252B"/>
<path d="M29.0603 89.4745L29.1891 89.1848C29.7041 89.1848 30.219 89.2814 30.7018 89.4745C31.0559 89.6354 31.3777 89.8929 31.5709 90.2148C31.764 90.5367 31.8605 90.8907 31.8605 91.2448C31.8605 91.631 31.764 92.0172 31.5709 92.3713C31.3455 92.6931 31.0559 92.9828 30.7018 93.1437C30.2512 93.3368 29.7684 93.4334 29.2535 93.4334H24.0071L24.6187 89.378L24.0071 85.5478H29.0603C29.6719 85.5156 30.2512 85.6766 30.734 86.0628C31.1202 86.4168 31.3456 86.9318 31.3134 87.479C31.3134 87.8008 31.249 88.1227 31.0881 88.4124C30.9271 88.7342 30.6696 88.9917 30.38 89.1848C29.9937 89.3458 29.5431 89.4745 29.0603 89.4745ZM25.4233 92.9828L24.8761 92.2747H29.0925C29.4466 92.3069 29.8006 92.1782 30.0903 91.985C30.3478 91.7597 30.4765 91.4701 30.4443 91.116C30.4765 90.762 30.3156 90.4079 30.0259 90.2148C29.6397 89.9573 29.2213 89.8608 28.7707 89.8929H25.3589V88.8308H28.6419C28.9638 88.8308 29.3178 88.7342 29.5753 88.5089C29.8328 88.2836 29.9615 87.9618 29.9294 87.6077C29.9294 87.3502 29.8328 87.0927 29.6075 86.8996C29.35 86.7065 29.0282 86.61 28.7385 86.61H24.844L25.3911 85.9019L25.9383 89.3458L25.4233 92.9828Z" fill="#16252B"/>
<path d="M45.6362 93.369H44.3166V85.934L44.735 85.9662L41.0979 93.369H39.6174L35.9482 85.9662L36.3666 85.934V93.369H35.047V85.4834H37.1712L40.7117 92.7575H40.0358L43.5441 85.4834H45.6362V93.369Z" fill="#16252B"/>
<path d="M51.0113 89.4423L50.4641 92.9506L49.8204 92.1781H55.9357V93.369H49.0479L49.6916 89.4423L49.0479 85.5156H55.8714V86.7065H49.7882L50.4641 85.934L51.0113 89.4423ZM55.5817 88.863V90.0217H50.0779V88.863H55.5817Z" fill="#16252B"/>
<path d="M67.394 90.2792C67.3296 90.8907 67.1043 91.5023 66.7181 91.985C66.3318 92.5 65.8169 92.8862 65.2375 93.1437C64.5616 93.4334 63.8535 93.5622 63.1454 93.5622C62.3408 93.5943 61.5361 93.4012 60.828 93.0472C60.1843 92.7253 59.6371 92.2425 59.2831 91.5988C58.5428 90.2792 58.5428 88.6699 59.2831 87.3181C59.6693 86.7065 60.1843 86.2237 60.828 85.8697C61.5361 85.5156 62.3408 85.3547 63.1454 85.3547C63.8535 85.3547 64.5938 85.4834 65.2375 85.7731C65.8169 86.0306 66.3318 86.4168 66.7181 86.9318C67.1043 87.4146 67.3296 88.0261 67.394 88.6377H66.01C65.9456 88.2514 65.7847 87.8652 65.5272 87.5434C65.2697 87.2215 64.9157 86.9962 64.5294 86.8353C64.0788 86.6743 63.596 86.5778 63.1132 86.5778C62.5661 86.5778 62.0189 86.6743 61.5039 86.9318C61.0533 87.1571 60.6993 87.479 60.474 87.9296C59.9912 88.863 59.9912 89.9895 60.474 90.9551C60.7315 91.3735 61.0855 91.7275 61.5039 91.9529C62.0189 92.2103 62.5661 92.3069 63.1132 92.3069C63.596 92.3069 64.0788 92.2425 64.5294 92.0494C64.9157 91.8885 65.2697 91.6632 65.5272 91.3413C65.7847 91.0195 65.9456 90.6654 66.01 90.247L67.394 90.2792Z" fill="#16252B"/>
<path d="M69.4539 85.5156H77.3395V86.7387H69.4539V85.5156ZM72.7047 86.1594H74.0887V93.4012H72.7047V86.1594Z" fill="#16252B"/>
<path d="M81.9743 89.4423L81.4271 92.9506L80.7512 92.1781H86.8666V93.369H80.0109L80.6547 89.4423L80.0109 85.5156H86.8022V86.7065H80.7512L81.4271 85.934L81.9743 89.4423ZM86.5769 88.863V90.0217H81.0731V88.863H86.5769Z" fill="#16252B"/>
<path d="M103.153 90.2792C103.088 90.8907 102.863 91.5023 102.477 91.985C102.091 92.5 101.576 92.8862 100.964 93.1437C100.288 93.4334 99.5801 93.5622 98.872 93.5622C98.0673 93.5943 97.2627 93.4012 96.5546 93.0472C95.9109 92.7253 95.3637 92.2425 95.0097 91.5988C94.2694 90.2792 94.2694 88.6699 95.0097 87.3181C95.3959 86.7065 95.9109 86.2237 96.5546 85.8697C97.2627 85.5156 98.0673 85.3547 98.872 85.3547C99.5801 85.3547 100.32 85.4834 100.964 85.7731C101.543 86.0306 102.058 86.4168 102.477 86.8996C102.863 87.3824 103.088 87.994 103.153 88.6055H101.769C101.704 88.2193 101.543 87.833 101.286 87.5112C101.028 87.1893 100.674 86.964 100.288 86.8031C99.8376 86.6421 99.3548 86.5456 98.872 86.5456C98.3248 86.5456 97.7777 86.6421 97.2627 86.8996C96.8121 87.1249 96.458 87.4468 96.2327 87.8974C95.7499 88.8308 95.7499 89.9573 96.2327 90.9229C96.4902 91.3413 96.8443 91.6954 97.2627 91.9207C97.7777 92.1782 98.3248 92.2747 98.872 92.2747C99.3548 92.2747 99.8376 92.2103 100.288 92.0172C100.674 91.8563 101.028 91.631 101.286 91.3091C101.543 90.9873 101.704 90.6332 101.769 90.2148L103.153 90.2792Z" fill="#16252B"/>
<path d="M110.556 88.2193C110.588 87.6721 110.781 87.1571 111.103 86.7065C111.457 86.2559 111.907 85.9341 112.422 85.7087C113.034 85.4513 113.678 85.3547 114.321 85.3547C114.933 85.3547 115.512 85.4513 116.092 85.6766C116.574 85.8697 116.961 86.1593 117.282 86.5456C117.797 87.2537 117.862 88.1871 117.443 88.9274C117.218 89.3136 116.896 89.6676 116.542 89.9251C115.995 90.3435 115.416 90.7298 114.836 91.0838L112.229 92.6288L112.068 92.2103H118.023V93.369H110.62V92.3713L113.967 90.3435C114.45 90.0539 114.901 89.7642 115.351 89.4101C115.641 89.217 115.866 88.9595 116.092 88.6699C116.22 88.4446 116.317 88.1871 116.317 87.9296C116.317 87.6721 116.252 87.4146 116.092 87.1893C115.931 86.964 115.705 86.7709 115.416 86.6743C115.062 86.5456 114.675 86.4812 114.289 86.4812C113.839 86.4812 113.42 86.5456 113.002 86.7065C112.68 86.8353 112.422 87.0606 112.261 87.3181C112.1 87.5755 112.004 87.8652 111.972 88.1871L110.556 88.2193Z" fill="#16252B"/>
<path d="M124.943 93.53C124.17 93.5622 123.398 93.369 122.722 93.015C122.11 92.6931 121.628 92.2103 121.274 91.5988C120.598 90.247 120.598 88.6699 121.274 87.3181C121.595 86.7065 122.11 86.2237 122.722 85.9019C124.138 85.226 125.747 85.226 127.164 85.9019C127.775 86.2237 128.258 86.7387 128.612 87.3181C129.288 88.6699 129.288 90.247 128.612 91.5988C128.29 92.2103 127.775 92.6931 127.164 93.015C126.488 93.369 125.715 93.5622 124.943 93.53ZM124.943 92.4035C125.715 92.4356 126.455 92.1782 126.97 91.631C127.936 90.3435 127.936 88.5733 126.97 87.2859C125.812 86.2559 124.042 86.2559 122.883 87.2859C121.917 88.5733 121.917 90.3435 122.883 91.631C123.462 92.146 124.202 92.4356 124.943 92.4035Z" fill="#16252B"/>
<path d="M136.208 93.53C135.435 93.5622 134.663 93.369 133.987 93.015C133.375 92.6931 132.893 92.2103 132.539 91.5988C131.863 90.247 131.863 88.6699 132.539 87.3181C132.861 86.7065 133.375 86.2237 133.987 85.9019C134.663 85.5478 135.435 85.3869 136.208 85.3869C136.98 85.3547 137.753 85.5478 138.429 85.9019C139.04 86.2237 139.523 86.7387 139.877 87.3181C140.553 88.6699 140.553 90.247 139.877 91.5988C139.555 92.2103 139.04 92.6931 138.429 93.015C137.753 93.369 136.98 93.5622 136.208 93.53ZM136.208 92.4035C136.98 92.4356 137.721 92.1781 138.236 91.631C139.201 90.3435 139.201 88.5733 138.236 87.2859C137.077 86.2559 135.307 86.2559 134.148 87.2859C133.182 88.5733 133.182 90.3435 134.148 91.631C134.727 92.146 135.468 92.4356 136.208 92.4035Z" fill="#16252B"/>
<path d="M147.28 85.3547C148.439 85.3547 149.34 85.5478 149.984 85.934C150.595 86.2237 150.949 86.8353 150.949 87.5112C150.949 88.1227 150.627 88.6699 150.08 88.9595C149.34 89.3458 148.471 89.5067 147.634 89.4423V89.217C148.793 89.1527 149.662 89.2814 150.305 89.6354C150.917 89.9251 151.271 90.5367 151.239 91.2126C151.239 91.9207 150.853 92.5966 150.209 92.9184C149.533 93.3369 148.535 93.53 147.28 93.53C145.992 93.53 145.027 93.3369 144.351 92.9184C143.707 92.5966 143.321 91.9207 143.321 91.2126C143.289 90.5367 143.675 89.9251 144.287 89.6354C144.93 89.2814 145.799 89.1527 146.958 89.217V89.4423C146.121 89.5067 145.284 89.3458 144.544 88.9595C143.997 88.702 143.643 88.1227 143.675 87.5112C143.675 86.8353 144.029 86.2237 144.641 85.934C145.188 85.5478 146.089 85.3547 147.28 85.3547ZM147.28 92.4356C147.924 92.4678 148.6 92.3713 149.179 92.1138C149.565 91.9529 149.823 91.5988 149.823 91.1482C149.823 90.7298 149.565 90.3435 149.179 90.1826C147.924 89.7642 146.604 89.7642 145.349 90.1826C144.962 90.3435 144.705 90.7298 144.705 91.1482C144.705 91.5666 144.962 91.9529 145.349 92.1138C145.96 92.3391 146.604 92.4356 147.28 92.4356ZM147.28 88.7986C147.698 88.7986 148.117 88.7664 148.503 88.6699C148.793 88.6055 149.05 88.4768 149.275 88.2836C149.436 88.1227 149.533 87.8974 149.533 87.6399C149.533 87.2537 149.308 86.9318 148.954 86.7709C147.859 86.3847 146.668 86.3847 145.574 86.7709C145.22 86.8996 144.995 87.2537 144.962 87.6399C144.962 87.8974 145.059 88.1227 145.22 88.2836C145.445 88.4768 145.703 88.6055 145.992 88.6699C146.443 88.7664 146.861 88.7986 147.28 88.7986Z" fill="#16252B"/>
<path d="M41.5164 6.11251H15.0916C14.2869 6.11251 13.6432 5.46878 13.6432 4.66413C13.6432 2.53985 15.3491 0.833984 17.4733 0.833984H39.1668C41.2911 0.833984 42.9969 2.53985 42.9969 4.66413C42.9969 5.46878 42.321 6.11251 41.5164 6.11251Z" fill="#E6DDCD"/>
<path d="M156.067 89.7964H168.651C168.909 89.7964 169.102 89.6033 169.102 89.3458V89.2814C169.102 89.0239 168.909 88.8308 168.651 88.8308H156.067C155.809 88.8308 155.616 89.0239 155.616 89.2814V89.3458C155.616 89.6033 155.841 89.7964 156.067 89.7964Z" fill="#16252B"/>
<path d="M5.69323 89.7964H18.278C18.5355 89.7964 18.7286 89.6033 18.7286 89.3458V89.2814C18.7286 89.0239 18.5355 88.8308 18.278 88.8308H5.69323C5.43574 88.8308 5.24262 89.0239 5.24262 89.2814V89.3458C5.24262 89.6033 5.43574 89.7964 5.69323 89.7964Z" fill="#16252B"/>
</g>
</g>
</svg>
