<svg width="120" height="119" viewBox="0 0 120 119" fill="none" xmlns="http://www.w3.org/2000/svg">
<path fill-rule="evenodd" clip-rule="evenodd" d="M30.2684 103.854C20.456 102.503 3.0121 99.5676 0.345137 88.0436C-1.70709 79.1792 5.87774 67.4216 10.3001 60.0716C12.5884 56.2645 18.0696 48.0919 18.2612 43.7847C18.3991 40.7022 17.6582 37.3906 16.9242 34.4108L9.01919 2.31155C18.9391 7.03939 24.2426 9.80878 35.7472 10.0869C46.2071 10.3416 52.1043 6.42241 60 0.27832C67.9214 6.4411 73.7579 10.3416 84.2528 10.0869C95.7574 9.80878 101.061 7.03939 110.981 2.31155L103.076 34.4085C102.342 37.3882 101.601 40.6998 101.739 43.7824C101.93 48.0895 107.409 56.2645 109.7 60.0692C114.122 67.4192 121.707 79.1769 119.655 88.0413C116.988 99.5629 99.544 102.501 89.7316 103.851C77.6987 105.506 67.2856 108.142 60 118.463C52.7167 108.145 42.3013 105.508 30.2684 103.854Z" fill="#FFF100"/>
<path fill-rule="evenodd" clip-rule="evenodd" d="M30.5136 102.08C21.5801 100.85 4.51251 98.0996 2.09097 87.639C0.20236 79.485 7.68668 67.8886 11.8356 60.992C14.3482 56.8134 19.8364 48.6594 20.0515 43.8615C20.1964 40.6107 19.4367 37.1191 18.6654 33.9805L11.6602 5.5527C20.6826 9.85285 25.1844 11.622 35.705 11.8767C45.9147 12.1245 52.2116 8.60721 60.0021 2.54492C67.7412 8.56748 73.9797 12.1268 84.2993 11.8767C94.8176 11.622 99.3217 9.85285 108.344 5.5527L101.341 33.9828C100.568 37.1215 99.8102 40.613 99.9552 43.8638C100.168 48.6594 105.656 56.8157 108.171 60.9944C112.32 67.891 119.804 79.485 117.916 87.6413C115.494 98.1019 98.4265 100.853 89.493 102.082C79.538 103.451 66.1401 106.674 60.0068 115.363C53.8665 106.672 40.4662 103.451 30.5136 102.08Z" fill="#034EA1"/>
<path fill-rule="evenodd" clip-rule="evenodd" d="M60.0005 112.261C57.5743 108.823 46.6306 102.494 30.7574 100.309C21.6018 99.0496 5.93664 96.3246 3.83299 87.2382C2.25759 80.4374 7.95147 70.921 13.3672 61.9163C16.102 57.3708 21.6018 49.2145 21.8356 43.9445C21.9922 40.3898 21.1203 36.4869 20.3981 33.5563L14.3022 8.79297C19.213 11.1347 24.2898 13.3899 35.6612 13.6657C48.5683 13.9789 56.2934 7.69924 60.0005 4.81299C63.7076 7.69924 71.4327 13.9789 84.3397 13.6657C95.7111 13.3899 100.788 11.1347 105.699 8.79297L99.6005 33.554C98.8783 36.4846 98.0064 40.3875 98.1631 43.9421C98.3968 49.2145 103.897 57.3684 106.631 61.914C112.047 70.9163 117.741 80.4351 116.166 87.2359C114.062 96.3223 98.3968 99.0473 89.2412 100.307C73.3704 102.494 62.4267 108.825 60.0005 112.261Z" fill="#FFF100"/>
<path fill-rule="evenodd" clip-rule="evenodd" d="M72.3721 17.3926C78.7392 17.3926 83.9025 22.5551 83.9025 28.9212C83.9025 35.285 78.7415 40.4498 72.3721 40.4498C66.0051 40.4475 60.8418 35.2873 60.8418 28.9212C60.8418 22.5551 66.0051 17.3949 72.3721 17.3926Z" fill="white"/>
<path fill-rule="evenodd" clip-rule="evenodd" d="M74.7592 17.7779C77.5501 18.3738 79.9646 19.9887 81.5891 22.2182C81.0982 22.0617 80.5677 21.9471 80.1539 21.835C80.397 23.4662 80.1259 24.9502 79.836 26.3712C80.9533 27.0886 81.9023 28.124 82.6035 29.5285C82.9565 29.0658 83.3749 28.4371 83.7161 27.7851C83.7535 28.159 83.7722 28.5399 83.7722 28.9256C83.7722 31.4239 82.9681 33.7329 81.6055 35.6118C81.6008 35.107 81.547 34.5812 81.526 34.1629C80.0511 34.899 78.5528 35.0977 77.113 35.2613C76.7764 36.5467 76.0822 37.7666 74.9649 38.8673C75.5025 39.0566 76.2107 39.253 76.919 39.3768C75.5259 39.9821 73.9879 40.321 72.3728 40.321C71.1643 40.321 70.0003 40.1317 68.9087 39.7835C69.3739 39.6245 69.8414 39.4189 70.2247 39.274C69.07 38.0985 68.4156 36.736 67.8172 35.4179C66.4919 35.495 65.1152 35.2122 63.7221 34.4901C63.7081 35.0509 63.7384 35.7708 63.8366 36.4742C62.0742 34.483 60.9967 31.8726 60.9756 29.012C61.2702 29.4093 61.6138 29.7903 61.8709 30.1104C62.6305 28.6475 63.7267 27.6051 64.7949 26.6282C64.3111 25.3919 64.1545 23.9944 64.4116 22.4496C63.8647 22.6132 63.1751 22.8703 62.5253 23.1881C63.9161 20.809 66.1436 18.9814 68.8036 18.105C68.5067 18.5187 68.2379 18.9814 68.0065 19.3367C69.6333 19.6078 70.9633 20.3252 72.2232 21.0404C73.2516 20.199 74.5302 19.6171 76.0799 19.3857C75.7456 18.8973 75.2758 18.3037 74.7592 17.7779ZM72.3704 16.9038C79.0086 16.9038 84.3893 22.286 84.3893 28.9209C84.3893 35.5557 79.0086 40.938 72.3704 40.938C65.7322 40.9356 60.3516 35.5557 60.3516 28.9209C60.3516 22.2837 65.7322 16.9038 72.3704 16.9038Z" fill="#034EA1"/>
<path fill-rule="evenodd" clip-rule="evenodd" d="M72.4031 24.4731C73.9294 25.3308 75.409 26.4363 76.7249 27.7403C76.5029 29.4721 75.9489 31.2319 75.2103 32.8211C73.2703 32.9963 71.4261 32.9987 69.6006 32.8211C68.8993 31.3067 68.3828 29.4721 68.0859 27.7403C69.3972 26.4339 70.8768 25.3332 72.4031 24.4731Z" fill="#034EA1"/>
<path fill-rule="evenodd" clip-rule="evenodd" d="M61.9618 20.103C53.1499 31.5499 62.7916 49.704 73.1977 54.1234L63.1165 64.8481C52.3037 53.24 51.0439 31.2764 61.9618 20.103ZM59.1219 20.8556C49.4264 32.6156 51.9858 54.9553 62.1839 65.8366L52.832 75.7831C39.5579 59.3537 43.9335 34.4992 59.1219 20.8556ZM51.8947 76.7833L42.4633 86.8163C23.853 61.1999 38.0456 31.9378 55.5574 22.7135C41.2338 36.446 39.2704 61.3051 51.8947 76.7833Z" fill="#034EA1"/>
<path d="M33.1543 92.8487C33.1543 91.9583 33.4301 91.2501 33.9817 90.7243C34.5334 90.2008 35.2533 89.9367 36.1368 89.9367H36.2724V89.2333H38.1376V89.9367H38.2732C39.1497 89.9367 39.8673 90.1985 40.4236 90.7243C40.9799 91.2501 41.258 91.9559 41.258 92.8487C41.258 93.7601 40.9799 94.4753 40.4236 94.9988C39.8673 95.5199 39.152 95.7817 38.2732 95.7817H38.1376V96.609H36.2724V95.7817H36.1368C35.2673 95.7817 34.5591 95.5269 34.0145 95.0151C33.4395 94.4753 33.1543 93.7531 33.1543 92.8487ZM38.1353 91.2455V94.4776C38.5209 94.4776 38.8014 94.3841 38.9744 94.1972C39.2081 93.9494 39.3273 93.5007 39.3273 92.851C39.3273 92.2083 39.2105 91.7666 38.9744 91.5259C38.7944 91.3366 38.5163 91.2455 38.1353 91.2455ZM36.27 94.4753V91.2431C35.8844 91.2431 35.6039 91.3319 35.4309 91.5119C35.1972 91.7526 35.078 92.199 35.078 92.8487C35.078 93.4914 35.1925 93.9354 35.4192 94.1855C35.6015 94.3794 35.8844 94.4753 36.27 94.4753ZM44.0489 89.2356V92.4163L45.872 89.2356H47.7046L46.0684 91.6685L47.6742 96.609H45.851L44.8366 93.4189L44.0489 94.5781V96.609H42.1836V89.2356H44.0489ZM53.3447 90.5397V92.3532H53.6766C53.9945 92.3532 54.2539 92.2901 54.4526 92.1663C54.7074 92.0073 54.8359 91.769 54.8359 91.4511C54.8359 91.1333 54.712 90.8949 54.4619 90.736C54.2539 90.6051 53.9921 90.5397 53.6742 90.5397H53.3447ZM51.4818 96.609V89.2356H54.2586C54.9972 89.2356 55.5886 89.4015 56.0303 89.7334C56.5212 90.1003 56.7666 90.6308 56.7666 91.3273C56.7666 92.1289 56.5002 92.7295 55.9696 93.1291C55.5068 93.482 54.871 93.6573 54.0646 93.6573C53.7958 93.6573 53.5574 93.6433 53.3494 93.6152V96.609H51.4818ZM57.2692 92.9235C57.2692 91.8461 57.4725 90.972 57.8816 90.3036C58.3724 89.495 59.125 89.0931 60.1395 89.0931C61.1539 89.0931 61.9065 89.4927 62.3974 90.2943C62.8041 90.958 63.0098 91.8344 63.0098 92.9258C63.0098 94.0032 62.8064 94.8772 62.3974 95.5456C61.9065 96.3542 61.1539 96.7585 60.1395 96.7585C59.125 96.7585 58.3724 96.3589 57.8816 95.5573C57.4725 94.8889 57.2692 94.0125 57.2692 92.9235ZM59.2793 92.9235C59.2793 93.7788 59.3237 94.3701 59.4149 94.6949C59.5388 95.1577 59.7819 95.389 60.1395 95.389C60.4994 95.389 60.7402 95.16 60.8641 94.7043C60.9529 94.3724 60.9996 93.7788 60.9996 92.9235C60.9996 92.0798 60.9552 91.4909 60.8641 91.152C60.7402 90.6893 60.4971 90.4579 60.1395 90.4579C59.7865 90.4579 59.5481 90.6869 59.4242 91.1426C59.3261 91.4932 59.2793 92.0868 59.2793 92.9235ZM67.3246 93.905L68.9397 94.0499C68.9397 94.8655 68.7107 95.5199 68.2502 96.013C67.7897 96.5062 67.161 96.7539 66.3593 96.7539C65.3238 96.7539 64.5641 96.3566 64.0803 95.562C63.6876 94.9123 63.4889 94.0336 63.4889 92.9211C63.4889 91.8578 63.683 90.9977 64.0686 90.341C64.5595 89.5067 65.3215 89.0884 66.3569 89.0884C67.2054 89.0884 67.8599 89.3501 68.3157 89.876C68.7294 90.3597 68.9374 91.0048 68.9374 91.8134H67.1961C67.1961 91.4745 67.147 91.1894 67.0511 90.9533C66.9132 90.6215 66.6959 90.4555 66.399 90.4555C66.039 90.4555 65.7913 90.6986 65.6534 91.18C65.5505 91.5469 65.4968 92.1289 65.4968 92.9305C65.4968 93.7999 65.5458 94.3981 65.6417 94.723C65.7726 95.1647 66.039 95.3867 66.4387 95.3867C66.7636 95.3867 66.9904 95.2628 67.1213 95.0128C67.2592 94.7651 67.3246 94.3958 67.3246 93.905ZM69.4657 90.6635V89.2333H74.6664V90.6635H72.9998V96.609H71.1346V90.6635H69.4657ZM75.1105 92.9235C75.1105 91.8461 75.3138 90.972 75.7205 90.3036C76.2114 89.495 76.964 89.0931 77.9784 89.0931C78.9929 89.0931 79.7455 89.4927 80.2363 90.2943C80.6431 90.958 80.8488 91.8344 80.8488 92.9258C80.8488 94.0032 80.6454 94.8772 80.2363 95.5456C79.7455 96.3542 78.9929 96.7585 77.9784 96.7585C76.964 96.7585 76.2114 96.3589 75.7205 95.5573C75.3138 94.8889 75.1105 94.0125 75.1105 92.9235ZM77.1183 92.9235C77.1183 93.7788 77.1627 94.3701 77.2538 94.6949C77.3777 95.1577 77.6208 95.389 77.9784 95.389C78.336 95.389 78.5791 95.16 78.703 94.7043C78.7918 94.3724 78.8386 93.7788 78.8386 92.9235C78.8386 92.0798 78.7942 91.4909 78.703 91.152C78.5791 90.6893 78.336 90.4579 77.9784 90.4579C77.6255 90.4579 77.3871 90.6869 77.2632 91.1426C77.1674 91.4932 77.1183 92.0868 77.1183 92.9235ZM81.7066 96.609V89.2356H84.813C85.4768 89.2356 86.0027 89.3992 86.393 89.7287C86.7834 90.0559 86.9774 90.4789 86.9774 90.9977C86.9774 91.4394 86.8465 91.818 86.5847 92.1312C86.3229 92.4444 85.991 92.6477 85.5913 92.7365C86.0751 92.8674 86.4491 93.0894 86.7156 93.4002C86.9821 93.711 87.1153 94.1037 87.1153 94.5804C87.1153 95.2021 86.8979 95.6952 86.4632 96.0621C86.0284 96.429 85.4417 96.6113 84.7031 96.6113H81.7066V96.609ZM83.5695 93.3979V95.2418H84.252C84.4998 95.2418 84.7031 95.1834 84.862 95.0665C85.0771 94.9076 85.1823 94.6552 85.1823 94.3117C85.1823 94.0359 85.1028 93.8139 84.9439 93.6479C84.7849 93.482 84.5535 93.4002 84.2497 93.4002H83.5695V93.3979ZM83.5695 90.5397V92.1546H84.1795C84.4974 92.1546 84.7312 92.0798 84.8831 91.9326C85.035 91.7853 85.1098 91.5913 85.1098 91.3576C85.1098 91.0398 85.0163 90.8155 84.8293 90.6846C84.6914 90.5888 84.4881 90.5397 84.2169 90.5397H83.5695Z" fill="#034EA1"/>
<path d="M55.4388 99.9926V103.936H56.1446V104.735H53.6016V103.936H54.3215V101.166L53.6016 101.339V100.533C53.7535 100.511 53.9592 100.441 54.221 100.327C54.5131 100.198 54.6931 100.086 54.7609 99.9949H55.4388V99.9926ZM56.75 103.555L57.7691 103.396C57.7925 103.559 57.8299 103.686 57.8813 103.774C57.9561 103.898 58.0707 103.961 58.2202 103.961C58.3979 103.961 58.5335 103.852 58.627 103.632C58.7204 103.412 58.7672 103.09 58.7672 102.664C58.6246 102.748 58.4774 102.816 58.3254 102.87C58.1712 102.924 58.0216 102.949 57.8767 102.949C57.5424 102.949 57.2549 102.83 57.0071 102.594C56.7617 102.356 56.6378 102.057 56.6378 101.692C56.6378 101.159 56.7851 100.731 57.0773 100.411C57.3694 100.088 57.7808 99.9295 58.3091 99.9295C58.8958 99.9295 59.3399 100.191 59.6414 100.715C59.8845 101.14 60.0084 101.668 60.0084 102.3C60.0084 102.942 59.8751 103.496 59.6087 103.957C59.2838 104.52 58.8233 104.803 58.2226 104.803C57.3835 104.801 56.8926 104.385 56.75 103.555ZM58.7695 102.021C58.7695 101.626 58.7485 101.346 58.7088 101.182C58.641 100.902 58.5101 100.764 58.3091 100.764C58.1314 100.764 58.0029 100.85 57.9234 101.023C57.865 101.152 57.8369 101.316 57.8369 101.517C57.8369 101.729 57.872 101.895 57.9444 102.012C58.0146 102.129 58.1384 102.187 58.3114 102.187C58.3862 102.187 58.4657 102.171 58.5451 102.141C58.6223 102.113 58.6971 102.071 58.7695 102.021ZM61.1794 102.734V101.935H61.4458C61.6819 101.935 61.8619 101.893 61.9858 101.809C62.133 101.706 62.2055 101.545 62.2055 101.323C62.2055 101.159 62.1658 101.023 62.0863 100.921C62.0068 100.815 61.8946 100.764 61.7544 100.764C61.6025 100.764 61.4786 100.815 61.3781 100.921C61.2775 101.026 61.2028 101.164 61.156 101.337L60.2631 100.944C60.4057 100.617 60.6184 100.364 60.9012 100.189C61.1864 100.014 61.509 99.9271 61.8736 99.9271C62.2943 99.9271 62.6496 100.044 62.9394 100.28C63.2503 100.533 63.4046 100.864 63.4046 101.271C63.4046 101.542 63.2994 101.771 63.0914 101.958C62.9091 102.122 62.673 102.234 62.3785 102.29C62.7291 102.339 63.0025 102.445 63.1965 102.61C63.4233 102.797 63.5355 103.057 63.5355 103.389C63.5355 103.838 63.3438 104.193 62.9628 104.455C62.6262 104.686 62.2242 104.801 61.7567 104.801C61.3827 104.801 61.0672 104.719 60.8077 104.558C60.5483 104.394 60.3379 104.146 60.179 103.807L61.0508 103.375C61.1607 103.616 61.2659 103.772 61.364 103.847C61.4622 103.922 61.5767 103.959 61.71 103.959C62.1003 103.959 62.2967 103.767 62.2967 103.386C62.2967 103.12 62.2125 102.938 62.0442 102.84C61.925 102.769 61.7357 102.732 61.4786 102.732H61.1794V102.734ZM63.7949 102.363C63.7949 101.647 63.9024 101.091 64.1151 100.691C64.391 100.182 64.8397 99.9248 65.4615 99.9248C66.0785 99.9248 66.525 100.18 66.8008 100.691C67.0182 101.096 67.128 101.652 67.128 102.363C67.128 103.087 67.0018 103.66 66.7494 104.081C66.4619 104.56 66.0318 104.801 65.4638 104.801C64.8374 104.801 64.391 104.56 64.1245 104.081C63.9048 103.69 63.7949 103.118 63.7949 102.363ZM65.4615 100.724C65.3189 100.724 65.2137 100.792 65.1413 100.925C65.0711 101.058 65.0337 101.299 65.0337 101.645V103.083C65.0337 103.433 65.0688 103.674 65.1366 103.805C65.2044 103.936 65.3142 104.001 65.4591 104.001C65.6017 104.001 65.7069 103.933 65.7794 103.8C65.8495 103.667 65.8869 103.426 65.8869 103.08V101.643C65.8869 101.292 65.8518 101.051 65.784 100.921C65.7139 100.79 65.6064 100.724 65.4615 100.724Z" fill="#034EA1"/>
<path fill-rule="evenodd" clip-rule="evenodd" d="M30.0554 15.3658C25.5653 14.6764 21.4374 13.6808 17.2231 12.0332L22.9404 35.011C23.8823 38.7947 24.0459 41.3771 24.0413 43.3753C24.0319 48.22 20.6404 54.6305 17.6181 59.9286C12.8989 68.2017 8.23116 74.9184 7.45281 83.2102C6.54357 92.9206 22.7183 96.3 30.053 96.9567V15.3658H30.0554Z" fill="#034EA1"/>
<path fill-rule="evenodd" clip-rule="evenodd" d="M89.9961 15.3658C94.4862 14.6764 98.6141 13.6808 102.828 12.0332L97.1111 35.011C96.1691 38.7947 96.0055 41.3771 96.0102 43.3753C96.0196 48.22 99.4111 54.6305 102.433 59.9286C107.153 68.2017 111.82 74.9184 112.599 83.2102C113.508 92.9206 97.3332 96.3 89.9984 96.9567V15.3658H89.9961Z" fill="#034EA1"/>
</svg>
